<?xml version="1.0" encoding="UTF-8" standalone="no"?>
<!-- Created with Inkscape (http://www.inkscape.org/) -->

<svg
   width="170.16063mm"
   height="83.309685mm"
   viewBox="0 0 170.16063 83.309685"
   version="1.1"
   id="svg1"
   xml:space="preserve"
   xmlns:inkscape="http://www.inkscape.org/namespaces/inkscape"
   xmlns:sodipodi="http://sodipodi.sourceforge.net/DTD/sodipodi-0.dtd"
   xmlns="http://www.w3.org/2000/svg"
   xmlns:svg="http://www.w3.org/2000/svg"><sodipodi:namedview
     id="namedview1"
     pagecolor="#ffffff"
     bordercolor="#000000"
     borderopacity="0.25"
     inkscape:showpageshadow="2"
     inkscape:pageopacity="0.0"
     inkscape:pagecheckerboard="0"
     inkscape:deskcolor="#d1d1d1"
     inkscape:document-units="mm" /><defs
     id="defs1"><rect
       x="513.94019"
       y="721.83777"
       width="115.80278"
       height="32.822094"
       id="rect24" /><rect
       x="138.92902"
       y="706.30347"
       width="206.93622"
       height="60.234955"
       id="rect23" /></defs><g
     inkscape:label="Layer 1"
     inkscape:groupmode="layer"
     id="layer1"
     transform="translate(-20.967156,-107.36308)"><g
       id="g283"><path
         style="fill:#dda320;fill-opacity:1;stroke:#dda320;stroke-width:1;stroke-dasharray:none;stroke-opacity:1"
         d="m 148.57686,181.11638 c -5.60982,-0.74233 -10.46074,-2.24337 -15.06666,-4.66211 -9.86004,-5.1779 -16.19897,-13.75419 -18.4102,-24.90825 -0.64568,-3.25695 -0.54264,-11.3852 0.18611,-14.68322 3.26413,-14.7717 14.87138,-25.64307 30.50083,-28.56712 3.59565,-0.6727 11.23979,-0.51856 14.86415,0.29972 15.24344,3.44157 26.06449,14.10602 29.46816,29.04174 0.47591,2.08834 0.54338,3.18972 0.49648,8.10504 -0.0509,5.29971 -0.10444,5.87833 -0.78931,8.47034 -1.81086,6.85403 -4.79332,12.09111 -9.49574,16.67411 -5.10178,4.97221 -12.39191,8.46707 -20.53715,9.84542 -2.29091,0.38768 -9.36077,0.62992 -11.21669,0.38433 z m 9.44525,-4.10547 c 4.0215,-0.46103 7.84088,-1.36893 10.02667,-2.38343 4.36602,-2.02643 9.53389,-6.53444 12.45978,-10.86886 0.85984,-1.27376 0.81888,-1.24909 -1.35526,0.81631 -7.81845,7.42741 -16.63475,11.00739 -26.87952,10.9148 -9.89256,-0.0893 -18.95507,-3.97092 -26.09505,-11.17663 -1.55941,-1.57376 -2.63575,-2.53787 -2.39188,-2.14248 1.94146,3.14778 5.71486,7.27815 8.33278,9.12106 1.69342,1.1921 5.14283,2.8265 7.67765,3.63783 2.36029,0.75545 7.62386,1.82978 9.22271,1.8824 0.58191,0.0191 1.35464,0.13335 1.71717,0.25376 1.06965,0.35528 3.89337,0.33405 7.28495,-0.0548 z m -0.63536,-3.16927 c 7.90607,-1.11398 14.8389,-4.51846 20.59036,-10.11125 2.56287,-2.49216 4.43692,-5.07389 6.09793,-8.40062 0.72274,-1.44753 1.31447,-2.50949 1.31495,-2.35992 0.002,0.57564 -1.46321,4.56063 -2.3216,6.31471 -0.49501,1.01153 -0.85571,1.88442 -0.80155,1.93975 0.18126,0.1852 2.55242,-3.59856 3.38757,-5.40568 3.78659,-8.19357 3.55025,-17.66726 -0.65476,-26.24543 -4.82548,-9.84392 -14.46847,-17.09412 -25.63397,-19.27321 -3.35433,-0.65463 -9.81698,-0.71973 -13.06964,-0.13138 -11.63322,2.10333 -21.25527,9.15747 -26.04129,19.09147 -3.2321,6.70863 -4.03112,14.58865 -2.17336,21.4336 0.69125,2.54691 3.05539,7.71216 4.1189,8.99912 0.57149,0.69156 0.52345,0.49217 -0.35188,-1.46053 -1.07237,-2.39223 -2.41444,-6.80978 -2.21223,-7.28177 0.0661,-0.15417 0.12974,-0.1016 0.14155,0.11682 0.0563,1.04154 1.96899,5.09953 3.54809,7.52766 3.90407,6.00316 10.21264,10.89827 17.27868,13.40732 2.22568,0.79031 4.98092,1.46072 8.04921,1.95855 1.6539,0.26834 6.44773,0.20305 8.73304,-0.11895 z m -8.18384,-1.74251 c 0.001,-0.10301 0.44987,-0.63618 0.99726,-1.18483 l 0.99524,-0.99756 -1.4973,-1.5298 -1.49728,-1.52981 -1.52887,1.49638 -1.52886,1.49636 0.89309,0.94147 c 0.80966,0.85351 0.84042,0.94089 0.32927,0.9354 -0.31009,-0.003 -0.89748,-0.14815 -1.30529,-0.32182 -0.40782,-0.17366 -1.07483,-0.34581 -1.48225,-0.38255 -0.95859,-0.0864 -1.13206,-0.28537 -0.69653,-0.79882 0.30498,-0.35955 0.15103,-0.62291 -1.12814,-1.92985 l -1.48129,-1.51347 -1.16036,1.11459 c -0.79658,0.76515 -1.29877,1.05977 -1.60182,0.93972 -0.654,-0.25905 -0.55122,-0.53716 0.68278,-1.84737 l 1.11905,-1.18815 -1.45994,-1.49164 -1.45995,-1.49164 -1.36361,1.24832 c -0.74999,0.68656 -1.36497,1.37432 -1.36663,1.52834 -0.002,0.15401 0.32061,0.63693 0.71613,1.07313 0.54113,0.59681 0.20001,0.433 -1.37823,-0.66182 -2.63213,-1.82591 -5.87187,-4.95554 -7.40672,-7.15502 l -1.17705,-1.68673 1.50906,-1.49255 c 0.82999,-0.82092 1.51026,-1.60444 1.51173,-1.74115 10e-4,-0.13672 -0.61133,-0.88381 -1.36178,-1.66021 l -1.36446,-1.41164 -1.15626,1.11066 c -0.95219,0.91464 -1.19967,1.04031 -1.40226,0.7121 -0.39069,-0.63297 -0.30052,-0.91188 0.5538,-1.71296 0.44104,-0.41354 0.80342,-0.89537 0.8053,-1.07074 0.002,-0.17537 -0.71565,-0.9991 -1.59453,-1.8305 -1.35743,-1.28408 -1.61711,-1.6795 -1.72511,-2.62686 -0.10527,-0.92336 -0.067,-1.05727 0.22263,-0.77829 0.28529,0.27483 0.61054,0.0849 1.76438,-1.03041 0.77805,-0.75204 1.41599,-1.49495 1.41767,-1.6509 0.005,-0.4359 -2.4484,-2.80368 -2.90982,-2.80863 -0.30665,-0.003 -0.37569,-0.20976 -0.27776,-0.83054 0.0908,-0.57536 0.60648,-1.27217 1.69872,-2.2953 0.86261,-0.80801 1.5695,-1.57322 1.57087,-1.70047 0.001,-0.12723 -0.35031,-0.64197 -0.78151,-1.14384 -0.85842,-0.99913 -0.89136,-1.1062 -0.51789,-1.68315 0.21006,-0.32447 0.42739,-0.21924 1.25742,0.60886 0.55191,0.55062 1.12579,1.00245 1.27531,1.00406 0.14951,0.002 0.55102,-0.32152 0.89224,-0.71807 0.34122,-0.39654 0.92962,-1.04703 1.30755,-1.44554 l 0.68715,-0.72456 -1.5237,-1.57322 -1.52371,-1.57321 1.0287,-1.51424 c 1.31754,-1.93943 4.58094,-5.19816 6.76851,-6.7588 1.61677,-1.15343 2.35486,-1.40693 1.63891,-0.56288 -0.27076,0.31922 -0.0878,0.61928 1.05988,1.73767 0.76294,0.74351 1.48872,1.35292 1.61284,1.35425 0.31651,0.003 2.85668,-2.42733 2.86176,-2.73846 0.002,-0.1405 -0.53883,-0.81873 -1.20252,-1.50718 -1.15021,-1.19314 -1.1791,-1.26015 -0.61743,-1.4318 0.46884,-0.14328 0.82504,0.0564 1.74297,0.97678 l 1.15371,1.15687 1.51872,-1.48643 c 1.46362,-1.43252 1.5022,-1.50509 1.06348,-2.00046 -0.43711,-0.49355 -0.42786,-0.52056 0.23248,-0.67878 0.37823,-0.0906 0.80798,-0.0886 0.95498,0.004 0.14701,0.0931 0.47007,-0.009 0.71791,-0.2264 0.24784,-0.21757 0.92775,-0.47452 1.5109,-0.57098 l 1.06029,-0.17538 -1.06233,1.08391 -1.06231,1.08391 1.49728,1.52981 1.4973,1.5298 1.53053,-1.49799 1.53053,-1.498 -1.12585,-1.17207 -1.12586,-1.17208 0.75005,-0.13916 c 0.59374,-0.11016 0.92737,0.0349 1.60101,0.69575 l 0.85098,0.83492 0.92744,-0.87979 c 0.75339,-0.71468 1.03024,-0.83258 1.47522,-0.62827 0.52855,0.24269 0.51307,0.29119 -0.4412,1.3821 l -0.98898,1.13058 1.40275,1.45125 1.40276,1.45125 1.54444,-1.49584 1.54445,-1.49584 -0.97958,-1.04693 -0.97957,-1.04695 1.01409,0.16487 c 0.55774,0.0907 1.19694,0.31997 1.42045,0.50955 0.22351,0.18959 0.68586,0.31113 1.02745,0.27009 0.91053,-0.10938 1.20361,0.16481 0.81897,0.76623 -0.28703,0.44883 -0.15632,0.68467 1.0996,1.98401 l 1.42535,1.47463 1.21223,-1.16114 c 1.09627,-1.05007 1.26888,-1.12956 1.80445,-0.831 0.58546,0.32637 0.57694,0.34486 -0.74619,1.62039 l -1.33841,1.29026 1.49767,1.54633 1.49767,1.54634 1.41211,-1.36492 c 0.77666,-0.75071 1.41334,-1.48036 1.41486,-1.62147 0.002,-0.1411 -0.26199,-0.55114 -0.58556,-0.91118 l -0.58831,-0.65463 0.6578,0.34288 c 1.42013,0.74025 4.16457,3.00955 6.05195,5.00419 2.36638,2.50086 5.26832,6.7018 3.72549,5.39312 -0.37338,-0.31671 -0.60772,-0.17091 -1.88659,1.17378 l -1.46026,1.53543 1.38649,1.43442 c 0.76258,0.78894 1.51523,1.43582 1.67256,1.43751 0.15733,0.002 0.76035,-0.47233 1.34004,-1.05337 0.96496,-0.96721 1.08199,-1.01729 1.38539,-0.59286 0.28679,0.40117 0.17942,0.61516 -0.79751,1.58942 l -1.12892,1.12583 1.4202,1.4693 c 0.91709,0.9488 1.57211,1.42287 1.84902,1.33825 0.34182,-0.10447 0.48234,0.17893 0.69259,1.39681 0.28738,1.66469 0.19489,2.04514 -0.32155,1.3227 -0.18331,-0.25641 -0.44327,-0.4674 -0.57772,-0.46884 -0.13444,-0.001 -0.89297,0.64011 -1.68563,1.42568 l -1.44119,1.4283 1.48455,1.52893 1.48455,1.52894 0.70553,-0.63395 0.70553,-0.63396 -0.18276,1.45333 c -0.10049,0.79934 -0.18606,1.66268 -0.19007,1.91854 -0.006,0.3977 -0.083,0.41681 -0.52885,0.13166 -0.46474,-0.29722 -0.68226,-0.17824 -1.9962,1.09179 l -1.47463,1.42535 1.20307,1.24799 c 1.083,1.1234 1.17087,1.30667 0.88028,1.83591 -0.31785,0.57887 -0.34372,0.56684 -1.67948,-0.78098 l -1.35666,-1.36889 -1.52969,1.51297 -1.52969,1.51298 1.51136,1.52807 1.51137,1.52807 1.03112,-0.97954 1.03112,-0.97955 -0.63357,1.13389 c -0.89534,1.60239 -3.73986,5.0184 -5.40084,6.48592 -1.65694,1.46396 -4.85958,3.83311 -5.80468,4.294 l -0.66497,0.3243 0.71417,-0.75426 0.71418,-0.75427 -1.40271,-1.60266 -1.40271,-1.60266 -1.48445,1.43031 c -0.81645,0.78666 -1.48573,1.54934 -1.4873,1.69482 -0.002,0.14549 0.54017,0.8278 1.20385,1.51624 1.15021,1.19314 1.17911,1.26015 0.61742,1.4318 -0.46883,0.14328 -0.82503,-0.0564 -1.74295,-0.97678 l -1.15372,-1.15687 -1.51871,1.48643 c -1.48376,1.45223 -1.50784,1.49872 -1.04626,2.0199 0.45961,0.51896 0.45402,0.53789 -0.20545,0.69589 -0.37285,0.0893 -0.79955,0.0854 -0.94823,-0.009 -0.14867,-0.0941 -0.54337,-0.005 -0.8771,0.19802 -0.33373,0.20303 -1.02096,0.44104 -1.52716,0.52892 l -0.92036,0.15978 1.05458,-1.05704 1.05459,-1.05704 -1.4973,-1.5298 -1.49728,-1.52981 -1.52981,1.4973 -1.5298,1.49728 0.97358,1.01871 c 0.53546,0.56028 0.97267,1.10297 0.97156,1.20597 -0.005,0.48209 -1.49671,0.10487 -2.16258,-0.54693 l -0.7344,-0.71889 -0.74967,0.70294 c -0.67972,0.63735 -2.17902,0.98245 -2.17384,0.50037 z m -3.38572,-4.74725 1.45577,-1.44276 -1.49901,-1.53157 -1.49902,-1.53157 -1.53157,1.49902 -1.53157,1.49902 1.42446,1.47369 c 0.78344,0.81053 1.49211,1.47442 1.5748,1.47531 0.0827,8.9e-4 0.80546,-0.64763 1.60614,-1.44114 z m 7.93704,0.0853 1.45577,-1.44276 -1.49901,-1.53157 -1.49902,-1.53156 -1.53156,1.49901 -1.53157,1.49902 1.42445,1.47369 c 0.78344,0.81053 1.49211,1.47442 1.57481,1.47531 0.0827,8.9e-4 0.80545,-0.64762 1.60613,-1.44114 z m 7.92549,0.0967 1.44421,-1.4313 -1.49908,-1.53164 -1.49909,-1.53164 -1.51994,1.48763 -1.51994,1.48764 1.42445,1.4737 c 0.78344,0.81053 1.4921,1.47442 1.57481,1.47531 0.0827,8.8e-4 0.80025,-0.64248 1.59458,-1.4297 z m 4.24393,-6.4238 c -1.90243,-2.05371 -1.72754,-2.0265 -3.30111,-0.5137 -0.77199,0.74219 -1.40491,1.46881 -1.40648,1.61471 -0.002,0.14591 0.61168,0.90105 1.36275,1.67811 l 1.36561,1.41282 1.54501,-1.49641 1.54502,-1.49639 z m -31.91768,2.35749 c 0.70355,-0.67823 1.28054,-1.36075 1.28222,-1.5167 0.002,-0.15595 -0.63737,-0.92975 -1.42011,-1.71954 l -1.42314,-1.43599 -1.51086,1.51462 -1.51086,1.51463 1.38726,1.43523 c 0.76301,0.78937 1.50631,1.4365 1.65179,1.43806 0.14549,0.002 0.84015,-0.55207 1.5437,-1.23031 z m 7.93705,0.0853 c 0.70354,-0.67824 1.28053,-1.36076 1.28221,-1.51671 0.002,-0.15595 -0.64619,-0.93865 -1.4397,-1.73932 l -1.44276,-1.45578 -1.52843,1.49595 -1.52844,1.49595 1.42445,1.47369 c 0.78344,0.81053 1.54348,1.47497 1.68896,1.47653 0.14549,0.002 0.84015,-0.55208 1.54371,-1.23031 z m 7.83615,-0.0226 c 0.76029,-0.73636 1.3832,-1.41838 1.38425,-1.51561 0.001,-0.0972 -0.64733,-0.83188 -1.44085,-1.63255 l -1.44276,-1.45578 -1.52843,1.49595 -1.52844,1.49595 1.42446,1.4737 c 0.78344,0.81053 1.49756,1.47447 1.58692,1.47543 0.0894,9.6e-4 0.78455,-0.60073 1.54485,-1.33709 z m 7.95674,0.0103 1.42631,-1.41356 -1.47474,-1.55568 -1.47474,-1.55569 -1.52638,1.49394 -1.52638,1.49393 1.42446,1.4737 c 0.78344,0.81053 1.4921,1.47441 1.5748,1.4753 0.0827,8.9e-4 0.7922,-0.63448 1.57667,-1.41194 z m 15.84271,0.20157 1.39494,-1.38245 -1.51336,-1.53009 -1.51335,-1.53008 -1.39564,1.38316 c -0.76759,0.76074 -1.39683,1.49438 -1.39829,1.63032 -0.004,0.34592 2.40151,2.80484 2.74722,2.80855 0.15595,0.002 0.91127,-0.61905 1.67848,-1.37941 z m -4.0275,-6.90652 -1.49685,-1.54548 -1.41211,1.36491 c -0.77666,0.75071 -1.41339,1.48431 -1.41495,1.63021 -0.002,0.14591 0.61167,0.90105 1.36275,1.6781 l 1.36561,1.41282 1.54619,-1.49754 1.54619,-1.49754 z m 7.93704,0.0853 -1.49685,-1.54548 -1.41211,1.36492 c -0.77666,0.75071 -1.41338,1.4843 -1.41495,1.6302 -0.002,0.14591 0.61168,0.90105 1.36275,1.67811 l 1.36561,1.41281 1.54619,-1.49754 1.5462,-1.49753 z m -47.40808,2.53562 c 0.70354,-0.67824 1.28045,-1.35295 1.28203,-1.49935 0.002,-0.14641 -0.61166,-0.90196 -1.36274,-1.67901 l -1.3656,-1.41282 -1.54587,1.49722 -1.54587,1.49722 1.36491,1.4121 c 0.75071,0.77666 1.48395,1.41338 1.62944,1.41495 0.14549,0.002 0.84014,-0.55208 1.5437,-1.23031 z m 7.93704,0.0853 c 0.70355,-0.67823 1.28054,-1.36076 1.28222,-1.51671 0.002,-0.15595 -0.63246,-0.92478 -1.40917,-1.70851 l -1.41223,-1.42497 -1.48731,1.53516 -1.4873,1.53516 1.35279,1.40367 c 0.74403,0.77202 1.47182,1.40495 1.6173,1.40651 0.14549,0.002 0.84015,-0.55208 1.5437,-1.23031 z m 7.9709,-0.027 c 0.68625,-0.74035 1.24856,-1.42302 1.24957,-1.51706 10e-4,-0.094 -0.63808,-0.81666 -1.42021,-1.60584 l -1.42205,-1.43488 -1.55501,1.46563 -1.55502,1.46564 1.43032,1.4831 c 0.78668,0.81572 1.56405,1.48455 1.7275,1.4863 0.16344,0.002 0.85864,-0.60254 1.5449,-1.34289 z m 7.81621,0.0204 1.42053,-1.40782 -1.47181,-1.55262 -1.47181,-1.55263 -1.46259,1.41371 c -0.80442,0.77754 -1.4636,1.5089 -1.46485,1.62526 -0.003,0.29008 2.41773,2.78136 2.75685,2.83707 0.15024,0.0247 0.91239,-0.58867 1.69368,-1.36297 z m 7.91145,0.11058 1.39494,-1.38246 -1.51335,-1.53008 -1.51336,-1.53008 -1.39563,1.38316 c -0.7676,0.76074 -1.39683,1.49437 -1.39829,1.63031 -0.004,0.34592 2.4015,2.80485 2.74721,2.80856 0.15595,0.002 0.91127,-0.61906 1.67848,-1.37941 z m -26.34242,-5.61463 c 0.004,-0.34803 -2.38616,-2.82206 -2.72966,-2.82575 -0.14641,-0.002 -0.90196,0.61167 -1.67901,1.36275 l -1.41282,1.3656 1.49722,1.54587 1.49722,1.54587 1.4121,-1.36492 c 0.77666,-0.7507 1.41338,-1.48394 1.41495,-1.62942 z m 14.53439,1.72557 1.45268,-1.43969 -1.42142,-1.47056 c -0.78179,-0.8088 -1.54619,-1.4719 -1.69868,-1.47354 -0.3103,-0.003 -2.81031,2.47975 -2.81369,2.79464 -0.002,0.23245 2.65228,3.0248 2.87807,3.02723 0.0827,8.9e-4 0.80406,-0.64625 1.60304,-1.43808 z m 7.78053,-3.01746 -1.49685,-1.54548 -1.41211,1.36491 c -0.77666,0.75071 -1.41338,1.48431 -1.41495,1.63021 -0.002,0.14591 0.61168,0.90105 1.36276,1.6781 l 1.3656,1.41282 1.54619,-1.49754 1.5462,-1.49754 z m 7.93704,0.0853 -1.49684,-1.54548 -1.41212,1.36491 c -0.77665,0.75072 -1.41338,1.48431 -1.41495,1.63021 -0.002,0.14591 0.61168,0.90105 1.36276,1.6781 l 1.3656,1.41282 1.5462,-1.49754 1.54619,-1.49754 z m 7.93704,0.0853 -1.49684,-1.54547 -1.41211,1.36491 c -0.77666,0.75071 -1.41339,1.4843 -1.41496,1.6302 -0.002,0.14592 0.61168,0.90106 1.36276,1.67811 l 1.3656,1.41282 1.5462,-1.49754 1.54619,-1.49754 z m -31.53399,2.70613 c 0.70355,-0.67824 1.28054,-1.36076 1.28221,-1.51671 0.002,-0.15595 -0.63424,-0.9266 -1.41315,-1.71254 l -1.41622,-1.42899 -1.49405,1.39865 c -0.82173,0.76926 -1.49492,1.48004 -1.49599,1.57953 -0.003,0.27382 2.70972,2.90032 3.00257,2.9072 0.14049,0.004 0.83107,-0.54891 1.53463,-1.22714 z m -10.58091,-5.59589 c 0.004,-0.34803 -2.38615,-2.82205 -2.72965,-2.82574 -0.14642,-0.002 -0.90197,0.61166 -1.67902,1.36274 l -1.41282,1.36561 1.49723,1.54587 1.49722,1.54587 1.4121,-1.36493 c 0.77666,-0.7507 1.41338,-1.48394 1.41494,-1.62942 z m 7.9281,0.20836 c -0.0107,-0.24764 -2.57677,-2.9473 -2.80378,-2.94974 -0.11981,-0.001 -0.84111,0.61608 -1.60289,1.37193 l -1.38504,1.37426 1.43549,1.58699 1.43549,1.58699 1.46342,-1.41451 c 0.80488,-0.77798 1.46067,-1.47815 1.45731,-1.55592 z m 6.60939,1.51415 1.45577,-1.44276 -1.49901,-1.53157 -1.49901,-1.53157 -1.53157,1.49902 -1.53157,1.49902 1.42445,1.47369 c 0.78344,0.81053 1.49211,1.47442 1.57481,1.47531 0.0827,8.9e-4 0.80545,-0.64763 1.60613,-1.44114 z m 7.93395,0.0882 1.45268,-1.43969 -1.42142,-1.47056 c -0.78179,-0.80881 -1.50568,-1.47147 -1.60868,-1.47258 -0.30188,-0.003 -2.89989,2.44032 -2.90301,2.73043 -0.003,0.2761 2.61473,3.08765 2.87739,3.09047 0.0827,8.9e-4 0.80406,-0.64625 1.60304,-1.43807 z m 7.83085,0.0464 1.4852,-1.47706 -1.38458,-1.43245 c -0.76152,-0.78784 -1.50362,-1.43373 -1.64911,-1.43529 -0.34803,-0.004 -2.82204,2.38616 -2.82573,2.72966 -0.002,0.23192 2.59277,3.08901 2.80802,3.09132 0.0446,4.8e-4 0.74935,-0.6638 1.5662,-1.47618 z m 7.88672,-2.97862 -1.49685,-1.54547 -1.41211,1.36491 c -0.77666,0.75071 -1.41338,1.4843 -1.41495,1.63021 -0.002,0.14591 0.61168,0.90105 1.36276,1.6781 l 1.3656,1.41282 1.54619,-1.49754 1.5462,-1.49754 z m 8.06831,0.21927 c -0.7507,-0.77665 -1.48394,-1.41338 -1.62944,-1.41495 -0.34803,-0.004 -2.82204,2.38617 -2.82573,2.72967 -0.002,0.14641 0.61167,0.90196 1.36275,1.67901 l 1.3656,1.41282 1.54587,-1.49722 1.54587,-1.49722 z m -50.18321,-3.10903 c 0.004,-0.34803 -2.38616,-2.82205 -2.72966,-2.82574 -0.14641,-0.002 -0.90196,0.61167 -1.67901,1.36274 l -1.41282,1.36561 1.49722,1.54587 1.49723,1.54587 1.4121,-1.36492 c 0.77665,-0.75071 1.41338,-1.48395 1.41494,-1.62943 z m 6.59345,1.64419 1.44878,-1.43582 -0.67108,-0.73876 c -0.36909,-0.40633 -0.94321,-1.06913 -1.27583,-1.47291 -0.33263,-0.40377 -0.73619,-0.73556 -0.89682,-0.73728 -0.16062,-0.002 -0.94573,0.64473 -1.74471,1.43655 l -1.45267,1.43969 1.42141,1.47056 c 0.78178,0.80881 1.48909,1.47129 1.57178,1.47218 0.0827,8.9e-4 0.80231,-0.64451 1.59914,-1.43421 z m 7.94404,0.0783 1.45577,-1.44276 -1.49901,-1.53157 -1.49902,-1.53156 -1.53156,1.49901 -1.53157,1.49902 1.42445,1.47369 c 0.78344,0.81053 1.49211,1.47442 1.57481,1.47531 0.0827,8.9e-4 0.80545,-0.64762 1.60613,-1.44114 z m 7.93704,0.0853 1.45577,-1.44275 -1.49901,-1.53157 -1.49901,-1.53157 -1.53157,1.49902 -1.53157,1.49901 1.42445,1.4737 c 0.78344,0.81053 1.49211,1.47442 1.57481,1.47531 0.0827,8.8e-4 0.80545,-0.64763 1.60613,-1.44115 z m 7.93395,0.0882 1.45268,-1.43969 -1.42142,-1.47056 c -0.78179,-0.8088 -1.50568,-1.47147 -1.60868,-1.47257 -0.30188,-0.003 -2.8999,2.44031 -2.90301,2.73043 -0.003,0.2761 2.61473,3.08765 2.87739,3.09047 0.0827,8.9e-4 0.80406,-0.64625 1.60304,-1.43808 z m 8.18537,-0.18651 1.15149,-1.2226 -1.39499,-1.44322 c -0.76725,-0.79378 -1.51402,-1.44451 -1.65951,-1.44607 -0.34803,-0.004 -2.82204,2.38617 -2.82573,2.72967 -0.002,0.14641 0.60525,0.89533 1.34849,1.66427 1.54902,1.60256 1.61006,1.59746 3.38025,-0.28205 z m 7.66347,-2.61168 c -0.7507,-0.77666 -1.4843,-1.4134 -1.63021,-1.41496 -0.1459,-0.002 -0.90105,0.61167 -1.67809,1.36275 l -1.41282,1.36561 1.49754,1.5462 1.49753,1.54619 1.54548,-1.49684 1.54549,-1.49685 z m 9.03741,1.49604 c 0.004,-0.34803 -2.38617,-2.82205 -2.72967,-2.82574 -0.1464,-0.002 -0.90196,0.61167 -1.679,1.36274 l -1.41282,1.36561 1.49722,1.54587 1.49722,1.54587 1.41211,-1.36492 c 0.77666,-0.7507 1.41338,-1.48395 1.41494,-1.62943 z m -51.28476,-4.41039 c 0.003,-0.2892 -2.48036,-2.93634 -2.75577,-2.93738 -0.15049,-6.2e-4 -0.91039,0.63005 -1.68866,1.40135 l -1.41503,1.40239 1.48416,1.54083 1.48415,1.54083 1.44474,-1.39648 c 0.79462,-0.76805 1.4455,-1.46625 1.44641,-1.55154 z m 6.60162,1.52782 1.45577,-1.44276 -1.499,-1.53156 -1.49902,-1.53157 -1.53157,1.49901 -1.53157,1.49902 1.42446,1.4737 c 0.78344,0.81053 1.49211,1.47442 1.5748,1.4753 0.0827,8.9e-4 0.80545,-0.64762 1.60613,-1.44114 z m 7.93705,0.0853 1.45577,-1.44276 -1.49901,-1.53157 -1.49902,-1.53157 -1.53157,1.49902 -1.53156,1.49901 1.42445,1.4737 c 0.78344,0.81053 1.49211,1.47442 1.5748,1.47531 0.0827,8.9e-4 0.80546,-0.64763 1.60614,-1.44114 z m 7.93704,0.0853 1.45577,-1.44276 -1.49901,-1.53157 -1.49902,-1.53157 -1.53156,1.49902 -1.53157,1.49902 1.42445,1.47369 c 0.78344,0.81053 1.49211,1.47442 1.57481,1.47531 0.0827,8.9e-4 0.80545,-0.64763 1.60613,-1.44114 z m 7.93139,0.0665 1.41266,-1.46191 -1.40013,-1.44854 c -0.77008,-0.7967 -1.50832,-1.44971 -1.64056,-1.45113 -0.27438,-0.003 -2.84776,2.53719 -2.85073,2.81392 -0.002,0.23063 2.67003,3.00532 2.89701,3.00776 0.093,9.9e-4 0.80478,-0.65605 1.58175,-1.4601 z m 8.13701,-0.27422 1.15239,-1.16483 -1.36998,-1.41735 c -0.75349,-0.77953 -1.48901,-1.41862 -1.6345,-1.42018 -0.34803,-0.004 -2.82204,2.38616 -2.82573,2.72966 -0.002,0.14642 0.60774,0.89791 1.35402,1.66999 1.52193,1.57456 1.35302,1.59475 3.3238,-0.39729 z m 8.81476,-1.09137 c 0.004,-0.34758 -2.38595,-2.82205 -2.7289,-2.82573 -0.34868,-0.004 -2.82295,2.38564 -2.82664,2.72966 -0.002,0.14641 0.61152,0.90182 1.36243,1.67868 l 1.36528,1.41249 1.41249,-1.36529 c 0.77687,-0.75091 1.41377,-1.48433 1.41534,-1.62981 z m -52.62018,-2.96782 1.45577,-1.44276 -1.49901,-1.53156 -1.49902,-1.53157 -1.50961,1.47753 -1.50962,1.47753 1.38377,1.49498 c 0.76108,0.82224 1.45986,1.49579 1.55286,1.49679 0.093,10e-4 0.82418,-0.64742 1.62486,-1.44094 z m 7.93704,0.0853 1.45577,-1.44275 -1.49901,-1.53157 -1.49901,-1.53157 -1.53157,1.49902 -1.53157,1.49901 1.42445,1.4737 c 0.78344,0.81053 1.49211,1.47442 1.57481,1.47531 0.0827,8.9e-4 0.80545,-0.64763 1.60613,-1.44115 z m 7.93704,0.0853 1.45577,-1.44276 -1.49901,-1.53157 -1.49901,-1.53157 -1.53157,1.49902 -1.53157,1.49902 1.42445,1.47369 c 0.78344,0.81053 1.49211,1.47442 1.57481,1.47531 0.0827,8.9e-4 0.80545,-0.64763 1.60613,-1.44114 z m 7.93704,0.0853 1.45577,-1.44276 -1.499,-1.53157 -1.49902,-1.53156 -1.53157,1.49901 -1.53157,1.49902 1.42446,1.47369 c 0.78344,0.81054 1.49211,1.47443 1.5748,1.47531 0.0827,8.9e-4 0.80545,-0.64762 1.60613,-1.44114 z m 7.93705,0.0853 1.45577,-1.44275 -1.49901,-1.53157 -1.49902,-1.53157 -1.53157,1.49902 -1.53156,1.49901 1.42445,1.4737 c 0.78344,0.81053 1.4921,1.47442 1.5748,1.47531 0.0827,8.8e-4 0.80546,-0.64763 1.60614,-1.44115 z m 7.93704,0.0853 1.45577,-1.44276 -1.46185,-1.4936 c -1.66608,-1.70225 -1.67696,-1.70129 -3.5201,0.31196 l -1.04993,1.14683 1.40981,1.45855 c 0.77539,0.80219 1.47746,1.45927 1.56017,1.46016 0.0827,8.9e-4 0.80545,-0.64763 1.60613,-1.44114 z m 7.72419,0.29446 c 0.70355,-0.67824 1.2811,-1.41213 1.28345,-1.63086 0.005,-0.44291 -2.31032,-2.95445 -2.72747,-2.95893 -0.34868,-0.004 -2.82294,2.38564 -2.82664,2.72966 -0.003,0.26554 2.60834,3.08917 2.85925,3.09187 0.0727,7.8e-4 0.70787,-0.5535 1.41141,-1.23174 z m 7.88533,-0.1268 1.45577,-1.44276 -1.4955,-1.52797 -1.49548,-1.52796 -1.34044,1.29221 c -0.73724,0.71071 -1.34202,1.44014 -1.34397,1.62093 -0.003,0.31363 2.32795,2.99637 2.62261,3.01796 0.0776,0.006 0.79633,-0.63889 1.59701,-1.43241 z m -51.28359,-4.51982 1.45577,-1.44276 -1.499,-1.53157 -1.49902,-1.53157 -1.53157,1.49902 -1.53157,1.49902 1.42446,1.47369 c 0.78344,0.81053 1.49211,1.47442 1.5748,1.47531 0.0827,8.9e-4 0.80546,-0.64763 1.60613,-1.44114 z m 7.93705,0.0852 1.45577,-1.44276 -1.49901,-1.53157 -1.49902,-1.53156 -1.53156,1.49901 -1.53157,1.49902 1.42445,1.47369 c 0.78344,0.81053 1.49211,1.47442 1.57481,1.47531 0.0827,8.9e-4 0.80545,-0.64762 1.60613,-1.44114 z m 7.93704,0.0853 1.45577,-1.44275 -1.49901,-1.53157 -1.49901,-1.53157 -1.53157,1.49902 -1.53157,1.49901 1.42445,1.4737 c 0.78344,0.81053 1.49211,1.47442 1.57481,1.47531 0.0827,8.8e-4 0.80545,-0.64763 1.60613,-1.44115 z m 7.93704,0.0853 1.45577,-1.44276 -1.49901,-1.53157 -1.49901,-1.53157 -1.53157,1.49902 -1.53157,1.49901 1.42445,1.4737 c 0.78344,0.81053 1.49211,1.47442 1.57481,1.47531 0.0827,8.9e-4 0.80545,-0.64763 1.60613,-1.44114 z m 7.93704,0.0853 1.45577,-1.44276 -1.499,-1.53157 -1.49902,-1.53156 -1.53157,1.49901 -1.53157,1.49902 1.42446,1.47369 c 0.78344,0.81053 1.4921,1.47442 1.5748,1.47531 0.0827,8.9e-4 0.80545,-0.64762 1.60613,-1.44114 z m 7.9122,0.10989 1.43092,-1.41814 -1.38093,-1.49191 c -0.75952,-0.82056 -1.46572,-1.49283 -1.56934,-1.49395 -0.29685,-0.003 -2.93856,2.65883 -2.94185,2.96446 -0.003,0.26622 2.60506,2.84081 2.889,2.85207 0.0777,0.003 0.78519,-0.63256 1.5722,-1.41253 z m 7.74904,0.26983 c 0.70354,-0.67823 1.28033,-1.34096 1.28175,-1.47274 0.003,-0.30161 -1.45805,-2.01455 -2.29049,-2.68495 l -0.62759,-0.50542 -1.31574,1.2684 c -0.72365,0.69762 -1.31765,1.44736 -1.32,1.66611 -0.005,0.44289 2.31032,2.95443 2.72746,2.95891 0.14599,0.002 0.84106,-0.55207 1.54461,-1.23031 z m -43.39826,-4.64662 1.45577,-1.44276 -1.499,-1.53156 -1.49902,-1.53157 -1.53157,1.49901 -1.53157,1.49902 1.42446,1.4737 c 0.78344,0.81053 1.49211,1.47442 1.5748,1.4753 0.0827,8.9e-4 0.80545,-0.64762 1.60613,-1.44114 z m 7.93704,0.0853 1.45577,-1.44276 -1.499,-1.53157 -1.49902,-1.53157 -1.53157,1.49902 -1.53157,1.49901 1.42446,1.4737 c 0.78344,0.81053 1.49211,1.47442 1.5748,1.47531 0.0827,8.9e-4 0.80546,-0.64763 1.60613,-1.44114 z m 7.93705,0.0853 1.45577,-1.44276 -1.49901,-1.53157 -1.49902,-1.53157 -1.53157,1.49902 -1.53156,1.49902 1.42445,1.47369 c 0.78344,0.81053 1.49211,1.47442 1.57481,1.47531 0.0827,8.9e-4 0.80545,-0.64763 1.60613,-1.44114 z m 7.93704,0.0853 1.45577,-1.44276 -1.49901,-1.53156 -1.49901,-1.53157 -1.53157,1.49901 -1.53157,1.49902 1.42445,1.47369 c 0.78344,0.81054 1.4921,1.47443 1.57481,1.47531 0.0827,8.9e-4 0.80545,-0.64762 1.60613,-1.44114 z m 7.91615,0.10593 1.43487,-1.42204 -1.46563,-1.55502 -1.46564,-1.55502 -1.48539,1.43254 c -0.81697,0.7879 -1.45542,1.50711 -1.41877,1.59825 0.19245,0.47861 2.42687,2.91756 2.67534,2.92022 0.15969,0.002 0.93603,-0.6368 1.72522,-1.41893 z m 7.88026,0.14135 1.41281,-1.36561 -1.49754,-1.54619 -1.49753,-1.5462 -1.54548,1.49684 -1.54549,1.49685 1.36492,1.4121 c 0.75071,0.77666 1.4843,1.4134 1.63021,1.41496 0.1459,0.002 0.90105,-0.61167 1.6781,-1.36275 z m -43.50958,-4.35676 c 0.71951,-0.70794 1.30932,-1.39032 1.31067,-1.5164 0.001,-0.12608 -0.64677,-0.88435 -1.44028,-1.68502 l -1.44276,-1.45578 -1.52844,1.49595 -1.52843,1.49595 1.42445,1.4737 c 0.78344,0.81053 1.53067,1.47483 1.66051,1.47623 0.12983,0.001 0.82476,-0.5767 1.54428,-1.28463 z m 7.91319,-0.0722 1.45577,-1.44276 -1.49901,-1.53157 -1.49901,-1.53157 -1.53157,1.49902 -1.53157,1.49902 1.42445,1.47369 c 0.78344,0.81053 1.49211,1.47442 1.57481,1.47531 0.0827,8.9e-4 0.80545,-0.64763 1.60613,-1.44114 z m 7.93704,0.0853 1.45577,-1.44276 -1.499,-1.53156 -1.49902,-1.53157 -1.53157,1.49901 -1.53157,1.49902 1.42446,1.47369 c 0.78344,0.81054 1.49211,1.47443 1.5748,1.47531 0.0827,8.9e-4 0.80545,-0.64762 1.60613,-1.44114 z m 7.93704,0.0852 1.45577,-1.44275 -1.499,-1.53157 -1.49902,-1.53157 -1.53157,1.49902 -1.53157,1.49901 1.42446,1.4737 c 0.78344,0.81053 1.49211,1.47442 1.5748,1.47531 0.0827,8.8e-4 0.80546,-0.64763 1.60613,-1.44115 z m 7.87458,0.14719 1.39331,-1.38084 -1.4172,-1.59615 -1.4172,-1.59614 -1.48997,1.43025 c -0.81949,0.78664 -1.49151,1.5721 -1.49337,1.74548 -0.003,0.31742 2.51909,2.77276 2.85228,2.77633 0.0984,0.001 0.80583,-0.61946 1.57215,-1.37893 z m 7.92184,0.10009 1.41281,-1.3656 -1.49754,-1.5462 -1.49753,-1.5462 -1.54549,1.49685 -1.54548,1.49684 1.36492,1.4121 c 0.7507,0.77666 1.48429,1.4134 1.63021,1.41497 0.1459,0.002 0.90105,-0.61168 1.6781,-1.36276 z m 7.80186,0.21768 c 0.70355,-0.67823 1.28055,-1.36075 1.28223,-1.51671 0.002,-0.15595 -0.62447,-0.91673 -1.39145,-1.69062 l -1.39449,-1.40708 -1.51128,1.51493 -1.51128,1.51492 1.35903,1.40602 c 0.74746,0.7733 1.47807,1.4073 1.62355,1.40886 0.14548,0.002 0.84015,-0.55208 1.54369,-1.23032 z m -43.29646,-4.6706 1.311,-1.4627 -1.44039,-1.47166 -1.44038,-1.47166 -1.53775,1.49309 -1.53776,1.49309 1.3935,1.44167 c 0.76641,0.79292 1.51663,1.44149 1.66713,1.44128 0.15051,-3.9e-4 0.8636,-0.65862 1.58465,-1.46311 z m 7.83525,0.10926 1.45577,-1.44275 -1.49901,-1.53157 -1.49902,-1.53157 -1.53156,1.49902 -1.53157,1.49901 1.42445,1.4737 c 0.78344,0.81053 1.49211,1.47442 1.57481,1.47531 0.0827,8.8e-4 0.80545,-0.64763 1.60613,-1.44115 z m 7.92303,0.0991 1.44176,-1.42887 -1.51745,-1.5137 -1.51745,-1.51369 -1.49911,1.46726 -1.49913,1.46726 1.42445,1.47369 c 0.78344,0.81053 1.49211,1.47442 1.57481,1.47531 0.0827,8.9e-4 0.79915,-0.64138 1.59212,-1.42726 z m 7.90537,0.11661 1.4101,-1.39749 -1.52025,-1.50532 -1.52025,-1.50531 -1.40372,1.35606 c -0.77204,0.74583 -1.40491,1.46825 -1.40638,1.60536 -0.004,0.342 2.41725,2.83672 2.7568,2.84086 0.15049,0.002 0.90815,-0.62554 1.6837,-1.39416 z m 7.90506,0.11671 1.4128,-1.3656 -1.49753,-1.54619 -1.49753,-1.54621 -1.54549,1.49685 -1.54549,1.49685 1.36493,1.4121 c 0.7507,0.77665 1.48429,1.41339 1.6302,1.41496 0.1459,0.002 0.90105,-0.61168 1.67811,-1.36276 z m 7.93704,0.0853 1.41281,-1.36561 -1.49754,-1.54619 -1.49753,-1.5462 -1.54549,1.49684 -1.54548,1.49685 1.36492,1.4121 c 0.7507,0.77666 1.48429,1.41339 1.6302,1.41496 0.14591,0.002 0.90106,-0.61168 1.67811,-1.36275 z m -11.81645,-6.87426 c -0.7507,-0.77665 -1.48395,-1.41338 -1.62944,-1.41494 -0.34803,-0.004 -2.82204,2.38617 -2.82573,2.72967 -0.002,0.1464 0.61167,0.90195 1.36275,1.679 l 1.3656,1.41282 1.54587,-1.49722 1.54587,-1.49722 z m -15.865,2.60792 1.36679,-1.36613 -1.42829,-1.45931 -1.42829,-1.4593 -1.48541,1.24169 c -0.81699,0.68292 -1.48669,1.35917 -1.48823,1.50276 -0.003,0.27457 2.62105,2.87383 2.92199,2.89445 0.096,0.007 0.78971,-0.60279 1.54144,-1.35416 z m 7.88114,0.085 1.41248,-1.36529 -1.36529,-1.41249 c -0.75091,-0.77687 -1.48432,-1.41377 -1.62981,-1.41533 -0.34757,-0.004 -2.82204,2.38594 -2.82572,2.7289 -0.004,0.34867 2.38563,2.82294 2.72966,2.82664 0.14641,0.002 0.90181,-0.61152 1.67868,-1.36243 z m 32.41448,23.82261 c -0.0157,-1.1644 -0.196,-3.13098 -0.40059,-4.37018 -0.40974,-2.4819 -0.44123,-3.05586 -0.12327,-2.24741 0.3841,0.97661 0.79653,5.27241 0.67361,7.01609 l -0.12115,1.71859 z m -67.8949,-2.31686 c 0.37255,-8.06224 3.61152,-15.30146 9.38574,-20.97754 1.60944,-1.5821 4.4342,-3.80246 5.63227,-4.42719 0.91202,-0.47557 0.45501,0.0211 -0.7889,0.85743 -1.97994,1.33113 -5.35696,4.60424 -7.06965,6.85211 -3.94475,5.17742 -6.09489,10.63921 -6.915,17.56551 l -0.39112,3.30329 z m 66.88954,-5.38935 c 0.016,-0.30807 0.0794,-0.37009 0.16156,-0.15812 0.0743,0.1918 0.0625,0.41989 -0.0264,0.50686 -0.0888,0.087 -0.14972,-0.0699 -0.13523,-0.34874 z m -1.017,-3.06116 c -0.15797,-0.46931 -0.24043,-0.89909 -0.18323,-0.95507 0.0572,-0.056 0.23324,0.2822 0.39122,0.75151 0.15797,0.46931 0.24041,0.8991 0.18322,0.95508 -0.0572,0.056 -0.23324,-0.28221 -0.39121,-0.75152 z"
         id="path281" /><path
         style="fill:#614cd7;fill-opacity:1;stroke:#614cd7;stroke-width:1;stroke-dasharray:none;stroke-opacity:1"
         d="m 51.978829,179.64564 c -14.502034,-2.53298 -24.746403,-10.73559 -28.693807,-22.97501 -1.490811,-4.62244 -1.99619,-8.55855 -1.764674,-13.74403 0.275396,-6.1683 1.291219,-10.02335 3.991814,-15.14895 4.941743,-9.37919 15.085936,-16.30717 26.379912,-18.0162 3.062143,-0.46336 9.171595,-0.38449 12.13157,0.15661 11.246141,2.05588 21.592152,9.75205 26.460239,19.6832 2.600885,5.30593 3.606979,10.54547 3.317508,17.27691 -0.421253,9.79592 -3.442411,17.09821 -9.539586,23.05768 -5.109067,4.99369 -10.749521,7.85087 -18.662517,9.45355 -3.432585,0.69524 -10.360832,0.82557 -13.620459,0.25624 z m 12.114059,-5.2038 c 9.088997,-1.5649 17.526638,-6.66597 22.592648,-13.65864 5.362962,-7.40256 6.610283,-18.53963 3.117933,-27.8394 -3.979598,-10.59726 -14.326459,-19.04349 -25.973546,-21.20243 -3.781572,-0.70096 -10.785974,-0.51699 -14.545052,0.38203 -9.714005,2.32319 -18.447552,9.03395 -22.428327,17.23369 -2.992861,6.1648 -3.872357,11.46063 -2.960855,17.82861 1.617348,11.29918 8.386871,19.9292 19.337501,24.65207 3.142649,1.3554 8.205382,2.69235 11.461906,3.02685 1.954374,0.20075 7.128189,-0.032 9.397792,-0.42278 z m -12.534991,-1.45605 c -2.711883,-0.48434 -7.74345,-2.19674 -10.199651,-3.47126 -6.118486,-3.17488 -11.857123,-9.33154 -14.145143,-15.17552 -0.93861,-2.39736 -1.829732,-6.23337 -2.126747,-9.155 -0.378704,-3.72516 0.06649,-7.45472 1.32239,-11.07812 1.661308,-4.79304 3.358077,-7.58419 6.765752,-11.12948 5.023357,-5.22623 11.881548,-8.96032 18.417718,-10.02793 2.940979,-0.48037 9.62544,-0.41038 12.529763,0.13158 9.663339,1.80197 18.537969,8.5179 22.850717,17.29245 2.542018,5.17188 3.771098,10.72796 3.379045,15.27504 -0.7111,8.24742 -4.04028,14.70664 -10.193822,19.77789 -3.965921,3.26838 -6.462853,4.70492 -10.839745,6.23632 -5.023522,1.75765 -12.297452,2.30008 -17.760281,1.32441 z m 12.249145,-1.12612 c 1.548616,-0.28756 1.976331,-0.49834 2.993098,-1.47501 l 1.186288,-1.1395 -1.112498,-1.17 c -2.19874,-2.31237 -8.651078,-8.21692 -8.98314,-8.22049 -0.362689,-0.004 -0.995196,0.54799 -6.40195,5.58584 -1.911006,1.78061 -3.475513,3.32665 -3.476684,3.43563 -0.0012,0.109 0.637475,0.7858 1.419213,1.50402 1.355471,1.24534 1.526326,1.32181 3.686656,1.65003 2.650326,0.40266 8.067609,0.31624 10.689017,-0.17052 z m -19.41519,-2.84623 c -0.04496,-0.19524 -2.793083,-2.89206 -6.106948,-5.99294 -6.254743,-5.85274 -6.617906,-6.09017 -7.095662,-4.63913 -0.523258,1.58923 5.996255,7.7019 10.734304,10.06442 1.974612,0.98461 2.597291,1.1278 2.468306,0.56765 z m 29.829051,-0.7763 c 3.684905,-2.12549 7.329814,-5.1305 9.127454,-7.52503 l 0.959836,-1.27854 -0.675114,-0.68977 -0.675114,-0.68978 -1.019037,0.87205 c -2.827042,2.4193 -10.736378,10.04942 -10.61894,10.24408 0.25854,0.42855 0.895697,0.22363 2.900915,-0.93301 z m -22.96832,-5.43526 c 2.645907,-2.45607 4.812162,-4.59789 4.813899,-4.75963 0.0032,-0.29609 -11.832951,-11.69791 -12.143784,-11.6982 -0.09168,-9e-5 -2.391981,2.10023 -5.111774,4.66736 -4.599245,4.34109 -4.917699,4.70169 -4.55356,5.15618 0.62175,0.77604 11.774117,11.10106 11.989899,11.10041 0.107014,1.5e-4 2.359414,-2.01007 5.00532,-4.46612 z m 24.448335,-0.63891 c 3.105662,-2.87711 5.647469,-5.30678 5.648463,-5.39927 0.0016,-0.14788 -5.658471,-5.70549 -8.89464,-8.73363 l -1.171023,-1.09575 -1.477693,1.3498 c -3.798115,3.46943 -10.164963,9.52549 -10.166518,9.67028 -0.0038,0.35091 9.789433,9.58338 10.091732,9.51392 0.177661,-0.0408 2.864018,-2.42823 5.969679,-5.30535 z m 10.759117,-6.235 c 0.401109,-0.7961 0.641239,-1.44353 0.533621,-1.43871 -0.107617,0.005 -0.721602,0.47412 -1.36441,1.0429 -0.977129,0.86461 -1.115331,1.09994 -0.842965,1.43539 0.555991,0.68476 0.918357,0.45969 1.673754,-1.03958 z m -56.210873,0.23715 c 0.225489,-0.26583 0.05152,-0.58851 -0.746523,-1.3847 -1.149629,-1.14697 -1.319799,-0.92855 -0.524327,0.67296 0.558779,1.12499 0.803886,1.26226 1.27085,0.71174 z m 33.7009,-5.37729 5.747856,-5.49158 -5.104841,-5.10489 c -2.807661,-2.8077 -5.548164,-5.46723 -6.090007,-5.91006 l -0.985167,-0.80514 -2.738094,2.56303 c -7.350182,6.88024 -9.041135,8.54054 -8.958874,8.79645 0.133603,0.41564 11.810065,11.44354 12.116674,11.44366 0.145534,-4.4e-4 2.851133,-2.47111 6.012453,-5.49147 z m 23.300169,0.54987 c 1.578014,-1.73266 1.723913,-2.36679 1.78167,-7.74386 l 0.04183,-3.89415 -1.57005,-1.63312 c -0.863527,-0.89823 -1.999403,-1.98517 -2.524169,-2.41543 l -0.95412,-0.7823 -5.442751,5.11183 c -2.993513,2.81151 -5.478108,5.20902 -5.521322,5.32781 -0.04322,0.1188 2.173671,2.40121 4.926412,5.07203 l 5.004983,4.85604 1.480286,-1.2374 c 0.814156,-0.68057 2.063912,-1.87822 2.777234,-2.66145 z m -49.963352,-1.75494 c 2.692729,-2.51555 4.897182,-4.69584 4.898785,-4.84508 0.0016,-0.14923 -2.472395,-2.61246 -5.497775,-5.47383 l -5.50069,-5.20249 -2.406553,2.34295 -2.406554,2.34295 -0.123885,3.32553 c -0.150394,4.03717 0.316342,6.68951 1.401159,7.96244 1.043818,1.22482 4.192441,4.1154 4.486217,4.11855 0.139384,10e-4 2.456567,-2.05545 5.149296,-4.57102 z m 39.760586,-11.09078 5.480421,-5.22754 -5.89028,-5.8828 c -3.239655,-3.23553 -6.023529,-5.85561 -6.186387,-5.82241 -0.410265,0.0837 -11.191275,10.14731 -11.194523,10.44964 -0.0035,0.322 11.702638,11.69634 12.045816,11.70442 0.145491,0.004 2.730721,-2.34615 5.744953,-5.22131 z M 49.955852,137.6615 c 3.222727,-3.02918 5.860762,-5.6246 5.862298,-5.76759 0.0015,-0.143 -2.463403,-2.59849 -5.477642,-5.45665 -3.607592,-3.42078 -5.598496,-5.13223 -5.825916,-5.00815 -0.577784,0.31524 -11.587798,10.79788 -11.590347,11.03518 -0.0025,0.23367 10.756554,10.67522 11.019098,10.69391 0.08415,0.006 2.789781,-2.46752 6.012509,-5.4967 z m 37.714024,-2.75077 c 0.0015,-0.14257 -0.185514,-0.74488 -0.415656,-1.33846 -0.428793,-1.10596 -0.764363,-1.22989 -1.258538,-0.4648 -0.220559,0.34147 -0.117599,0.60866 0.480261,1.24625 0.776405,0.82802 1.188954,1.02048 1.193933,0.55701 z m -58.471674,-1.80629 c 0.405524,-0.47809 0.204314,-1.20632 -0.334903,-1.21211 -0.331906,-0.004 -0.973532,1.23341 -0.980589,1.89046 -0.0032,0.29939 0.866605,-0.14914 1.315492,-0.67835 z m 55.783137,-1.97845 c 0.34018,-0.31277 0.619966,-0.70435 0.621747,-0.87017 0.0053,-0.49559 -2.301597,-3.87159 -3.940399,-5.76648 -1.547065,-1.78882 -4.834508,-4.5988 -6.747918,-5.76786 l -1.043257,-0.63741 -0.823389,0.67786 c -0.452863,0.37283 -0.825684,0.89154 -0.828489,1.1527 -0.0028,0.26115 0.496018,0.93351 1.108496,1.49411 0.612477,0.5606 3.234463,3.10302 5.826633,5.64982 2.592171,2.54679 4.824418,4.63178 4.960552,4.63332 0.136133,0.002 0.525844,-0.25312 0.866024,-0.56589 z m -47.470904,-5.87634 5.92736,-5.48121 -0.941657,-0.88176 c -0.517911,-0.48497 -1.052151,-0.88294 -1.187199,-0.88439 -0.13505,-0.001 -1.245905,0.71689 -2.468569,1.59631 -2.828114,2.03418 -6.429365,5.6129 -7.951988,7.90224 l -1.182173,1.77745 0.745032,0.79456 c 0.409768,0.43701 0.832063,0.76383 0.938433,0.72628 0.106371,-0.0376 2.860712,-2.53482 6.120761,-5.54948 z m 25.667538,0.0201 c 2.999073,-2.79425 5.494618,-5.20138 5.545657,-5.34919 0.135218,-0.39158 -5.103084,-5.47437 -5.927725,-5.75175 -0.896041,-0.30139 -7.732388,-0.44372 -9.304726,-0.19375 -1.038231,0.16508 -1.581856,0.5422 -4.06542,2.82026 -1.576811,1.44634 -2.868623,2.78751 -2.870695,2.98038 -0.0021,0.19287 0.564323,0.87384 1.258655,1.51329 0.694332,0.63944 3.111918,2.93876 5.372413,5.1096 2.260495,2.17084 4.206514,3.94801 4.324486,3.94928 0.117972,0.001 2.668282,-2.28389 5.667355,-5.07814 z m -15.41379,-9.55002 c 0.704477,-0.76412 0.172029,-0.73595 -1.981005,0.10477 -2.222501,0.86786 -2.336442,0.99631 -1.597043,1.8005 l 0.610257,0.66373 1.228896,-1.0079 c 0.675893,-0.55436 1.458395,-1.25684 1.738895,-1.5611 z m 23.383525,1.98132 c 0.700372,-0.72965 0.587691,-0.8595 -1.500842,-1.72946 -2.232918,-0.93011 -2.403075,-0.75243 -0.834014,0.87087 0.781781,0.80881 1.494025,1.47134 1.582765,1.4723 0.08875,9.5e-4 0.427181,-0.27522 0.752091,-0.61371 z"
         id="path5" /><text
         xml:space="preserve"
         transform="matrix(0.26458333,0,0,0.26458333,109.04775,-2.8570148)"
         id="text23"
         style="font-size:26.6667px;font-family:'Lilita One';-inkscape-font-specification:'Lilita One';white-space:pre;shape-inside:url(#rect23);fill:#dda320;fill-opacity:1;stroke:none;stroke-width:5.66929;stroke-linecap:round;stroke-linejoin:round;stroke-dasharray:none;stroke-opacity:1"><tspan
           x="138.92969"
           y="731.18445"
           id="tspan1">30%</tspan></text><text
         xml:space="preserve"
         transform="matrix(0.26458333,0,0,0.26458333,-82.981907,-6.9673582)"
         id="text24"
         style="font-size:26.6667px;font-family:'Lilita One';-inkscape-font-specification:'Lilita One';white-space:pre;shape-inside:url(#rect24);fill:#614cd7;fill-opacity:1;stroke:none;stroke-width:5.66929;stroke-linecap:round;stroke-linejoin:round;stroke-dasharray:none;stroke-opacity:1"><tspan
           x="513.93945"
           y="746.7196"
           id="tspan2">5%</tspan></text></g></g></svg>
