<?xml version="1.0" encoding="UTF-8" standalone="no"?>
<svg
   viewBox="0 0 16346577 8117256.8"
   version="1.1"
   id="svg82"
   width="16346577"
   height="8117257"
   xmlns="http://www.w3.org/2000/svg"
   xmlns:svg="http://www.w3.org/2000/svg">
  <defs
     id="defs3">
    <style
       id="style1">
      .cls-1, .cls-2 {
        fill: #010101;
      }

      .cls-3 {
        fill: url(#linear-gradient);
      }

      .cls-2, .cls-4 {
        fill-rule: evenodd;
      }

      .cls-5 {
        fill: #221f20;
      }
    </style>
  </defs>
  <g
     id="Layer_1"
     data-name="Layer 1">
    <path
       class="cls-3"
       d="m 3661.54,361.26 2.04,-3.36 c 2.26,-3.73 56.17,-92.28 124.09,-182.28 29.95,-39.68 58.2,-73.73 84.33,-101.67 H 2587.59 c 60.6,64.71 95.13,143.1 100.47,229.01 0.49,6.51 2.02,32.6 -1.46,69.22 -5.1,53.69 -18.16,104.64 -38.81,151.44 -35.53,80.51 -396.99,859.2 -550.75,1190.25 l -6.98,15.03 -67.07,144.45 -67.07,-144.45 -7.36,-15.84 C 1794.89,1382.2 1433.65,603.98 1398.19,523.63 c -20.65,-46.82 -33.71,-97.77 -38.81,-151.46 -3.49,-36.72 -1.94,-62.85 -1.45,-69.27 5.38,-85.87 39.94,-164.25 100.54,-228.96 H 174.13 c 26.11,27.92 54.33,61.93 84.25,101.57 67.93,90 121.86,178.55 124.12,182.28 l 2.05,3.37 1.68,3.57 1132.61,2410.41 h 1008.34 l 1132.68,-2410.32 1.67,-3.56 z"
       id="path3"
       style="fill:#263ea0;fill-opacity:1" />
    <path
       class="cls-5"
       d="m 3870.5,73.94 c -26.14,27.94 -54.39,61.98 -84.33,101.67 -67.92,90 -121.83,178.56 -124.09,182.28 l -2.04,3.36 -1.67,3.56 -1132.7,2410.32 H 1517.33 L 384.73,364.73 383.05,361.16 381,357.79 C 378.74,354.06 324.81,265.51 256.88,175.51 226.96,135.87 198.74,101.86 172.63,73.94 h 1284.35 c -60.6,64.71 -95.16,143.09 -100.54,228.96 -0.49,6.42 -2.04,32.56 1.45,69.27 5.1,53.69 18.16,104.64 38.81,151.46 35.46,80.34 396.7,858.57 550.37,1189.43 l 7.36,15.84 67.07,144.45 67.07,-144.45 6.98,-15.03 c 153.76,-331.05 515.22,-1109.74 550.75,-1190.25 20.65,-46.81 33.7,-97.76 38.81,-151.44 3.48,-36.62 1.95,-62.72 1.46,-69.22 -5.34,-85.91 -39.87,-164.3 -100.47,-229.01 H 3870.51 M 4043.09,0 H 2408.15 v 37.12 c 0,0 192.87,75.68 204.65,270.98 0,0 7.91,90.33 -34.15,185.68 -41.25,93.47 -537.28,1161.2 -557.14,1203.98 C 2001.65,1654.98 1505.62,587.25 1464.37,493.78 1422.31,398.42 1430.22,308.1 1430.22,308.1 1442.08,112.89 1634.87,37.12 1634.87,37.12 V 0 H 0 v 43.95 c 103.9,0 317.8,352.23 317.8,352.23 L 1470.38,2849.09 H 2572.62 L 3725.29,396.27 c 0,0 213.82,-352.23 317.8,-352.23 z"
       id="path4"
       style="fill:#ffffff;fill-opacity:1" />
    <g
       id="g6">
      <path
         class="cls-1"
         d="m 1712.4,2065.1 c -1.29,3.35 -2.62,6.68 -3.96,10 -1.33,3.33 -2.67,6.66 -4.05,9.97 0.09,-0.22 -0.1,0.26 -0.38,0.97 l 33.17,13.29 -8.79,21.95 -27.61,-11.06 -8.79,21.95 27.61,11.06 -8.79,21.95 -43.38,-17.38 -8.79,21.95 43.38,17.38 -8.79,21.95 -27.61,-11.06 -8.79,21.95 27.61,11.06 -8.79,21.95 -43.38,-17.38 -8.79,21.95 43.38,17.38 -8.79,21.95 -27.61,-11.06 -8.79,21.95 27.61,11.06 -8.79,21.95 -70.99,-28.44 17.59,-43.9 -23.66,-9.48 -26.38,65.85 118.32,47.4 114.31,-285.36 -56.86,-22.78 c -0.19,0.5 -0.33,0.9 -0.38,1.02 z"
         id="path5"
         style="fill:#ffffff;fill-opacity:1" />
      <path
         class="cls-1"
         d="m 1680.56,2076.65 c 2.43,-6.27 6.94,-17.49 8.83,-21.94 l -38.07,-15.25 -79.14,197.56 23.66,9.48 70.35,-175.61 z"
         id="path6"
         style="fill:#ffffff;fill-opacity:1" />
    </g>
  </g>
  <g
     id="Cutouts">
    <g
       id="g10"
       style="fill:#ffffff;fill-opacity:1">
      <polygon
         class="cls-1"
         points="1896.31,2368.67 1927.98,2368.67 1927.98,2382.13 1963.9,2438.67 1971.15,2438.67 2007.74,2382.13 2007.74,2368.67 2048.87,2368.67 2048.87,2382.13 2084.79,2438.67 2092.05,2438.67 2128.64,2382.13 2128.64,2368.67 2160.13,2368.67 2169.79,2288.56 1886.65,2288.56 "
         id="polygon6"
         style="fill:#ffffff;fill-opacity:1" />
      <path
         class="cls-1"
         d="m 1887.97,2427.06 -21.21,-72.56 2.01,-317.27 c 0.04,-5.16 -3.98,-9.58 -9.51,-10.53 -0.7,-0.11 -1.4,-0.15 -2.07,-0.15 -4.78,0 -9.17,2.73 -10.86,6.92 l -141.9,353.05 c -1.12,2.79 -0.91,5.91 0.59,8.55 1.5,2.63 4.14,4.6 7.29,5.36 l 161.49,39.62 c 0.99,0.22 2,0.35 2.99,0.35 3.04,0 5.99,-1.09 8.2,-3.1 2.92,-2.7 4.08,-6.6 2.99,-10.25 z"
         id="path7"
         style="fill:#ffffff;fill-opacity:1" />
      <path
         class="cls-1"
         d="m 2350.76,2384.78 -141.9,-353.05 c -1.69,-4.19 -6.08,-6.92 -10.86,-6.92 -0.68,0 -1.37,0.04 -2.07,0.15 -5.53,0.95 -9.54,5.37 -9.51,10.53 l 2.01,317.27 -21.21,72.56 c -1.09,3.65 0.07,7.54 2.99,10.25 2.2,2.01 5.16,3.1 8.2,3.1 0.99,0 2,-0.13 3,-0.35 l 161.49,-39.62 c 3.15,-0.76 5.78,-2.74 7.28,-5.36 1.5,-2.64 1.71,-5.76 0.59,-8.55 z"
         id="path8"
         style="fill:#ffffff;fill-opacity:1" />
      <path
         class="cls-1"
         d="m 2184.3,1985.68 h -40.01 v -39.34 h -84.83 v -50.92 h -64.71 v 50.92 h -81.38 v 39.34 h -54.76 c -4.41,0 -8.01,4.97 -8.01,11.04 0,6.07 3.6,11.05 8.01,11.05 h 325.69 c 4.43,0 8,-4.96 8,-11.05 0,-6.09 -3.57,-11.04 -8,-11.04 z m -150.98,-52.2 c -1.95,0.84 -4.13,1.31 -6.43,1.31 -0.15,0 -0.29,-0.02 -0.44,-0.02 2.43,-0.05 4.74,-0.5 6.87,-1.29 z"
         id="path9"
         style="fill:#ffffff;fill-opacity:1" />
      <path
         class="cls-1"
         d="m 2129.04,2028.76 h -201.63 c -18.16,0 -32.87,13.51 -32.87,30.09 v 184.63 c 0,16.64 14.71,30.1 32.87,30.1 h 201.63 c 18.15,0 32.87,-13.46 32.87,-30.1 v -184.63 c 0,-16.58 -14.73,-30.09 -32.87,-30.09 z m 10.51,12.92 c 0.99,0 1.94,0.13 2.85,0.36 -1.05,-0.19 -2.15,-0.31 -3.28,-0.34 0.14,0 0.28,-0.02 0.43,-0.02 z m 2.82,19.6 c -0.9,0.22 -1.84,0.35 -2.82,0.35 -0.14,0 -0.28,-0.01 -0.43,-0.02 1.12,-0.03 2.2,-0.14 3.24,-0.33 z m -124.01,-24.43 -11.09,8.19 c -24.72,19.67 -18.7,44.91 -10.62,61.19 -13.17,-7.13 -28.05,-21.17 -34.93,-48.92 l -37.15,42.67 c 1.39,30 26.74,41.39 45.7,45.74 -14.31,5.01 -35.61,6.93 -63.62,-5.47 l -2.68,-2.13 c 6.61,-54.23 54.57,-96.99 114.38,-101.27 z m 9.86,228.59 c -56.61,0 -104.4,-34.42 -119.81,-81.67 l 11.52,9.65 c 26.44,17.67 51.96,6.7 67.51,-4.13 -4.65,13.34 -16.3,29.75 -44.27,42.04 l 53.67,23.71 c 31.57,-7.93 38.12,-33.04 38.55,-50.95 8.49,11.63 15.26,30.2 8.31,57.93 l 53.69,-23.66 c 12.89,-27.54 -4.43,-47.84 -19.42,-59.32 15.24,1.18 35.28,7.91 54.61,30.12 l 1.77,2.35 c -22.09,32.39 -61.35,53.94 -106.13,53.94 z m 123.09,-94.4 -5.48,-15.06 c -15.15,-25.88 -42.51,-26.64 -61.62,-23.3 -0.1,-0.19 -0.2,-0.37 -0.3,-0.55 10.64,-9.9 28.74,-19.53 58.98,-19.51 l -37.16,-42.66 c -32.19,-5.41 -49.98,14.62 -58.85,30.55 -2.12,-13.86 0.59,-33.26 19.96,-55.47 l 2.01,-2.37 c 49.12,15.44 84.43,58.07 84.43,108.28 0,6.86 -0.69,13.56 -1.96,20.08 z"
         id="path10"
         style="fill:#ffffff;fill-opacity:1" />
    </g>
    <g
       id="g19"
       style="fill:#ffffff;fill-opacity:1">
      <g
         id="g16"
         style="fill:#ffffff;fill-opacity:1">
        <path
           d="m 594.25,552.96 129.87,350.29 c 1.15,3.1 6.11,4.11 11.08,2.27 4.98,-1.85 8.07,-5.85 6.93,-8.94 L 612.26,546.29 c -1.15,-3.1 -6.11,-4.11 -11.08,-2.27 -4.97,1.84 -8.08,5.85 -6.93,8.94 z"
           id="path11"
           style="fill:#ffffff;fill-opacity:1" />
        <path
           d="m 622.76,542.39 129.87,350.29 c 1.15,3.1 6.11,4.11 11.08,2.27 4.98,-1.85 8.07,-5.85 6.93,-8.94 L 640.77,535.72 c -1.15,-3.1 -6.11,-4.11 -11.08,-2.27 -4.98,1.85 -8.08,5.85 -6.93,8.94 z"
           id="path12"
           style="fill:#ffffff;fill-opacity:1" />
        <path
           d="m 651.26,531.82 129.87,350.29 c 1.15,3.1 6.11,4.11 11.08,2.27 4.98,-1.85 8.08,-5.85 6.93,-8.94 L 669.27,525.15 c -1.15,-3.1 -6.11,-4.11 -11.08,-2.27 -4.98,1.85 -8.08,5.85 -6.93,8.94 z"
           id="path13"
           style="fill:#ffffff;fill-opacity:1" />
        <path
           d="m 679.77,521.25 129.87,350.29 c 1.15,3.1 6.11,4.11 11.08,2.27 4.98,-1.85 8.07,-5.85 6.93,-8.94 L 697.78,514.58 c -1.15,-3.1 -6.11,-4.11 -11.08,-2.27 -4.98,1.85 -8.08,5.85 -6.93,8.94 z"
           id="path14"
           style="fill:#ffffff;fill-opacity:1" />
        <path
           d="m 708.27,510.68 129.87,350.29 c 1.15,3.1 6.11,4.11 11.08,2.27 4.98,-1.85 8.07,-5.85 6.93,-8.94 L 726.28,504.01 c -1.15,-3.1 -6.11,-4.11 -11.08,-2.27 -4.98,1.85 -8.08,5.85 -6.93,8.94 z"
           id="path15"
           style="fill:#ffffff;fill-opacity:1" />
        <path
           d="M 736.78,500.11 866.65,850.4 c 1.15,3.1 6.11,4.11 11.08,2.27 4.97,-1.84 8.08,-5.85 6.93,-8.94 L 754.79,493.44 c -1.15,-3.1 -6.11,-4.11 -11.08,-2.27 -4.98,1.85 -8.08,5.85 -6.93,8.94 z"
           id="path16"
           style="fill:#ffffff;fill-opacity:1" />
      </g>
      <g
         id="g18"
         style="fill:#ffffff;fill-opacity:1">
        <path
           d="m 532.56,537.19 155.06,418.23 c 2.43,6.55 12.46,8.88 22.41,5.19 9.95,-3.69 16.04,-11.99 13.61,-18.54 L 568.58,523.84 c -2.43,-6.55 -12.46,-8.88 -22.41,-5.19 -9.95,3.69 -16.04,11.99 -13.61,18.54 z"
           id="path17"
           style="fill:#ffffff;fill-opacity:1" />
        <path
           d="m 755.28,454.62 155.06,418.23 c 2.43,6.55 12.46,8.87 22.41,5.19 9.95,-3.69 16.04,-11.99 13.61,-18.54 L 791.3,441.27 c -2.43,-6.55 -12.46,-8.88 -22.41,-5.19 -9.95,3.69 -16.04,11.99 -13.61,18.54 z"
           id="path18"
           style="fill:#ffffff;fill-opacity:1" />
      </g>
    </g>
    <g
       id="g20"
       style="fill:#ffffff;fill-opacity:1">
      <path
         class="cls-1"
         d="m 1265.81,81.56 c -2.37,-1.47 -10.73,-3.23 -10.73,-3.23 0,0 -63.69,135.6 -64.83,144.57 -2.42,18.78 14.65,59.63 19.43,80.22 9.3,39.91 -167.64,276.54 -167.64,276.54 l 12.02,9.42 c 0,0 76.36,14.02 88.73,10.47 10.65,-3.08 174.04,-193.59 206.03,-272.73 25.27,-62.57 -20.94,-207.54 -83.01,-245.24 z m 34.58,60.73 c -3.88,4.96 -14.92,2.82 -24.64,-4.79 -9.69,-7.59 -14.4,-17.79 -10.52,-22.75 3.89,-4.97 14.92,-2.83 24.61,4.76 9.72,7.61 14.44,17.81 10.55,22.78 z"
         id="path19"
         style="fill:#ffffff;fill-opacity:1" />
      <path
         class="cls-1"
         d="m 1072.36,101.45 -22.09,-11.74 c -3.09,-1.65 -6.87,-0.7 -8.9,2.1 -0.18,0.25 -0.32,0.48 -0.5,0.79 l -62.14,113.13 -23.22,-16.88 2.53,-3.48 -21.93,-15.94 c 0,0 -6.92,0.29 -21.31,20.09 -14.72,20.25 -12.49,26.42 -12.49,26.42 l 21.93,15.94 2.16,-2.97 28.3,20.57 -8.62,15.69 c -1.7,3.07 -0.86,6.92 1.95,8.96 l 16.78,12.2 c 0.88,0.64 1.89,1.09 2.98,1.25 l 20.94,3.11 117.17,80.52 -56.71,78.03 38.7,28.12 c 16.92,-26.29 35.15,-55.49 51.32,-83.27 l 2.48,1.71 c 5.96,-10.21 11.64,-20.26 16.87,-29.88 l -126.92,-92.24 c 0,0 -21.73,-23.37 4.51,-59.48 25.2,-34.68 55.19,-22.67 55.19,-22.67 l 87.57,63.64 c -6.52,-18.18 -13.14,-37.93 -12.08,-49.55 0.13,-1.2 1.27,-4.77 3.21,-10 l -87.62,-76.62 -7.13,-14.57 c -0.65,-1.26 -1.67,-2.34 -2.94,-2.97 z"
         id="path20"
         style="fill:#ffffff;fill-opacity:1" />
    </g>
    <g
       id="g24"
       style="fill:#ffffff;fill-opacity:1">
      <polygon
         points="2596.46,77.12 2636.95,141.89 2922.75,141.89 2963.24,77.12 "
         id="polygon20"
         style="fill:#ffffff;fill-opacity:1" />
      <rect
         x="2696.5801"
         y="160.39999"
         width="166.53999"
         height="138.78"
         id="rect20"
         style="fill:#ffffff;fill-opacity:1" />
      <polygon
         points="2835.36,530.49 2835.36,476.43 2742.7,530.49 "
         id="polygon21"
         style="fill:#ffffff;fill-opacity:1" />
      <polygon
         points="2724.34,519.78 2835.36,455.01 2835.36,420.91 2724.34,485.68 "
         id="polygon22"
         style="fill:#ffffff;fill-opacity:1" />
      <polygon
         points="2724.34,464.26 2835.36,399.5 2835.36,365.4 2724.34,430.16 "
         id="polygon23"
         style="fill:#ffffff;fill-opacity:1" />
      <polygon
         points="2724.34,408.75 2835.36,343.99 2835.36,317.68 2724.34,317.68 "
         id="polygon24"
         style="fill:#ffffff;fill-opacity:1" />
    </g>
    <g
       id="g25"
       style="fill:#ffffff;fill-opacity:1">
      <path
         class="cls-1"
         d="m 3269.02,373.51 -81.97,68.78 101.51,-33.84 -91.41,147.2 122.91,-122.44 -9.45,106.23 48.1,-95.41 39.43,168.09 0.49,-172.87 68.6,81.45 -33.48,-101.09 147.19,90.53 -122.22,-122.04 106.47,8.95 -95.45,-47.55 168.72,-40.07 -133.33,0.21 -76.93,43.47 c -0.23,0.25 -1.46,1.87 -1.79,2.69 -0.47,2.07 -6.56,25.05 -27.24,36.74 -29.01,16.39 -65.88,6.25 -82.19,-22.61 -16.31,-28.86 -5.98,-65.68 23.03,-82.08 20.68,-11.69 43.51,-5.05 46.04,-4.25 0.36,0 2.38,-0.21 3.21,-0.53 L 3468.11,238.51 3537,127.56 3414.09,250 l 9.44,-106.23 -48.09,95.41 -39.44,-168.1 -0.49,172.87 -68.6,-81.45 33.48,101.09 -147.19,-90.53 122.23,122.04 -106.47,-8.96 95.45,47.55 -168.72,40.07 173.33,-0.26 z"
         id="path24"
         style="fill:#ffffff;fill-opacity:1" />
      <path
         class="cls-1"
         d="m 3792.34,81.55 -392.33,221.7 c -5.51,3.11 -14.95,4.11 -20.97,2.22 0,0 -15.23,-4.78 -27.78,2.31 -17.99,10.16 -24.37,32.91 -14.26,50.81 10.11,17.9 32.89,24.16 50.88,14 12.56,-7.1 16.31,-22.61 16.31,-22.61 1.48,-6.13 7.21,-13.7 12.72,-16.82 l 392.33,-221.7 z"
         id="path25"
         style="fill:#ffffff;fill-opacity:1" />
    </g>
    <path
       d="m 1007.05,449.16 c -3.37,-6.56 0.03,-10.33 6.4,-12.24 2.76,-0.83 5.93,-0.44 9.52,-0.64 -5.01,-12.21 -9.84,-23.6 -24.92,-27.03 -2.9,-0.66 -5.59,-2.34 -8.23,-3.8 -6.51,-3.59 -7.41,-9.05 -2.25,-14.09 1.77,-1.73 4.03,-3.03 6.45,-4.8 -11.04,-8.07 -21.97,-13.68 -36,-8.67 -3.14,1.12 -6.62,1.59 -9.99,1.94 -6.86,0.71 -10.26,-2.82 -10.46,-8.83 -0.1,-2.96 1.15,-5.96 1.78,-8.88 -15.49,-1.75 -27.53,3.03 -36.38,14.68 -1.17,1.54 -2.67,2.91 -4.16,4.2 -6.05,5.27 -12.79,3.99 -16.21,-3.15 -0.89,-1.85 -1.27,-3.92 -1.87,-5.85 -16.47,7.45 -20.24,20.6 -21.35,35.53 -0.73,9.72 -6.98,12.99 -14.91,8.81 -2.01,-1.06 -3.78,-2.51 -5.73,-3.83 -7.94,14.91 -4.29,27.77 5.11,39.85 0.6,0.77 1.07,1.63 1.5,2.5 3.23,6.59 0.29,12 -7.4,13.34 -2.44,0.43 -4.98,0.38 -7.57,0.56 3.73,13.43 10.45,23.42 25.08,26.98 2.58,0.63 4.98,2.07 7.34,3.33 5.94,3.15 7.08,9.7 2.37,14.29 -1.79,1.74 -4.09,3.02 -6.81,4.98 10.83,6.65 20.54,13.6 34.09,9.03 3.8,-1.28 7.98,-1.69 12.03,-2.2 7.61,-0.96 10.66,3.14 10.72,9.47 0.03,2.6 -1.38,5.22 -2.32,8.44 13.81,-0.48 26.49,-1.23 34.68,-12.97 1.65,-2.37 4.04,-4.32 6.26,-6.29 5.9,-5.24 11.81,-4.43 15.76,2.15 1.24,2.06 2.11,4.31 3.15,6.48 13.38,-7.37 19.94,-17.7 19.91,-31.6 0,-2.22 0.09,-4.52 0.67,-6.66 1.76,-6.59 6.56,-8.63 13.14,-6.58 2.77,0.86 5.13,2.85 8.16,4.61 3.79,-12.6 6.6,-24.45 -3.24,-35.5 -1.92,-2.15 -2.99,-4.99 -4.32,-7.57 z"
       id="path26"
       style="fill:#ffffff;fill-opacity:1" />
    <g
       id="g34"
       style="fill:#ffffff;fill-opacity:1">
      <path
         d="m 1441.9,1419.67 c 8.21,0 14.87,-5.73 14.87,-12.81 0,-7.08 -6.66,-12.8 -14.87,-12.8 h -112.65 c -8.21,0 -14.87,5.73 -14.87,12.8 0,7.07 6.66,12.81 14.87,12.81 h 41.82 l -123.78,281.67 h 26.41 l 99.07,-196.23 v 196.23 h 25.64 v -199.03 l 99.88,199.03 h 26.41 l -123.79,-281.67 h 41.01 z"
         id="path27"
         style="fill:#ffffff;fill-opacity:1" />
      <path
         d="m 1257.96,1424.22 c -31.27,-26.26 -51.85,-70.86 -51.85,-121.46 0,-44.58 15.99,-84.47 41.18,-111.3 -38.85,15.12 -67.2,60.77 -67.2,114.73 0,58.79 33.64,107.74 77.88,118.04 z"
         id="path28"
         style="fill:#ffffff;fill-opacity:1" />
      <path
         d="m 1207.01,1446.98 c -37.4,-31.4 -62,-84.71 -62,-145.21 0,-53.3 19.12,-100.99 49.22,-133.06 -46.45,18.07 -80.34,72.65 -80.34,137.15 0,70.28 40.23,128.81 93.11,141.12 z"
         id="path29"
         style="fill:#ffffff;fill-opacity:1" />
      <path
         d="m 1509.72,1424.22 c 31.28,-26.26 51.85,-70.86 51.85,-121.46 0,-44.58 -15.99,-84.47 -41.18,-111.3 38.86,15.12 67.21,60.77 67.21,114.73 0,58.79 -33.65,107.74 -77.89,118.04 z"
         id="path30"
         style="fill:#ffffff;fill-opacity:1" />
      <path
         d="m 1560.67,1446.98 c 37.39,-31.4 61.99,-84.71 61.99,-145.21 0,-53.3 -19.12,-100.99 -49.22,-133.06 46.45,18.07 80.35,72.65 80.35,137.15 0,70.28 -40.23,128.81 -93.11,141.12 z"
         id="path31"
         style="fill:#ffffff;fill-opacity:1" />
      <g
         id="g33"
         style="fill:#ffffff;fill-opacity:1">
        <path
           d="m 1375.07,1317.03 h -14.56 c -6.03,0 -11.23,2.7 -13.72,6.62 v -28.79 c 5.06,9.78 15.61,16.99 28.28,18.77 v -63.82 c -12.67,1.77 -23.22,8.98 -28.28,18.76 v -39.58 h -78.05 c -7.59,0 -13.74,5.29 -13.74,11.83 v 126.8 c 0,6.53 6.15,11.83 13.74,11.83 h 78.05 v -12.87 c 2.49,3.92 7.69,6.63 13.72,6.63 h 14.56 v -56.17 z"
           id="path32"
           style="fill:#ffffff;fill-opacity:1" />
        <path
           d="m 1503.89,1228.99 h -78.05 v 39.57 c -5.07,-9.79 -15.62,-16.99 -28.28,-18.76 v 63.82 c 12.66,-1.77 23.21,-8.98 28.28,-18.77 v 29.61 c -2.25,-4.36 -7.75,-7.44 -14.2,-7.44 h -14.08 v 56.17 h 14.08 c 6.45,0 11.95,-3.09 14.2,-7.45 v 13.69 h 78.05 c 7.59,0 13.74,-5.29 13.74,-11.83 v -126.8 c 0,-6.53 -6.15,-11.83 -13.74,-11.83 z"
           id="path33"
           style="fill:#ffffff;fill-opacity:1" />
      </g>
    </g>
    <g
       id="g36"
       style="fill:#ffffff;fill-opacity:1">
      <g
         id="g35"
         style="fill:#ffffff;fill-opacity:1">
        <polygon
           class="cls-1"
           points="584.39,344.66 584.39,358.89 662.1,426.46 616.4,356.38 616.4,344.66 "
           id="polygon34"
           style="fill:#ffffff;fill-opacity:1" />
        <polygon
           class="cls-1"
           points="676.41,430.01 701.75,430.01 783.55,358.89 783.55,344.66 644.85,344.66 644.85,356.38 "
           id="polygon35"
           style="fill:#ffffff;fill-opacity:1" />
      </g>
      <rect
         class="cls-1"
         x="596.84003"
         y="276.29999"
         width="174.25999"
         height="42.68"
         id="rect35"
         style="fill:#ffffff;fill-opacity:1" />
      <polygon
         class="cls-1"
         points="534.61,207.63 534.61,250.31 541.72,257.42 826.22,257.42 833.34,250.31 833.34,207.63 826.22,200.52 541.72,200.52 "
         id="polygon36"
         style="fill:#ffffff;fill-opacity:1" />
      <rect
         class="cls-1"
         x="555.94"
         y="75.199997"
         width="256.06"
         height="106.69"
         id="rect36"
         style="fill:#ffffff;fill-opacity:1" />
    </g>
    <g
       id="Layer_1-2"
       data-name="Layer_1"
       style="fill:#ffffff;fill-opacity:1">
      <path
         class="cls-2"
         d="m 3076.61,220.74 -27.51,67.23 -29.48,-12.5 -15.91,37.52 c 8.53,3.62 26.79,10.36 28.76,15.21 1.97,4.85 -2.63,10.96 -9.45,8.06 l -23.87,-10.12 -17.85,39.71 25.09,9.63 c 8.53,3.62 3.46,15.55 -4.57,13.15 l -25.09,-9.63 -16.63,39.22 24.6,8.42 c 8.53,3.62 3.96,16.77 -5.79,13.64 l -23.87,-10.12 -16.63,39.22 c 7.31,4.11 25.09,9.63 27.05,14.49 1.96,4.86 -3.85,11.45 -9.45,8.06 l -23.38,-8.91 -16.63,39.22 c 8.04,2.4 25.81,7.93 27.78,12.78 1.96,4.86 -3.85,11.45 -8.96,9.28 l -23.87,-10.12 -15.03,35.43 -34.65,-15.4 c -10.38,-5.88 -17.26,-3.1 -22.01,8.9 l -44.31,109.81 -18.76,-7.96 -144.66,16.12 -4.34,10.23 143.25,60.75 c 4.1,-7.66 6.98,-15.82 12.66,-20.96 1.68,2.26 3.76,4.08 6.13,5.16 l 40.74,18.46 -25.06,60.28 c -4.58,10.64 -18.58,16.3 -29.27,11.84 l -20.87,-7.67 c -11.2,-5.72 -16.8,-19.56 -10.94,-30.71 l 5.85,-11.15 -151.42,-63.21 -3.05,7.09 93.9,118.68 162.11,67.67 5.73,-13.3 103.52,43.21 c 3.06,-14.41 -4.32,-29 -19.85,-34.43 l -73.75,-31.81 21.01,-48.77 2.46,-6.35 74.68,31.18 c 12.47,5.21 28.25,0.29 37.16,-10.64 l -102.77,-43.94 2.15,-5.55 7.22,3.27 c 10.59,2.44 31.52,22.54 41.02,-1.47 l 59.95,-148.59 c 2.58,-9.45 -0.71,-21.56 -9.93,-24.55 l -21.81,-9.7 123.49,-295.93 -14,-5.94 28.36,-66.87 -39.22,-16.63 z"
         id="path36"
         style="fill:#ffffff;fill-opacity:1" />
    </g>
    <path
       class="cls-5"
       d="m 966.97,1489.72 2.49,-1.06 -5.6,-13.22 -18.99,8.04 c -1.65,0.7 -3.49,0.1 -4.1,-1.34 l -29.01,-68.48 c -0.61,-1.44 0.24,-3.18 1.89,-3.88 l 2.08,-0.88 -28.36,-66.95 -7.86,-27.97 3.38,-1.43 -26.21,-61.87 -5.07,2.15 -28.97,-68.4 21.14,-8.96 -21.9,-51.7 28.76,-12.18 21.9,51.7 21.14,-8.95 1.75,4.12 29.77,-12.61 c 44.28,-18.76 66.93,-65.25 50.58,-103.84 -16.35,-38.59 -65.5,-54.67 -109.78,-35.91 l -48.38,20.49 1.5,3.54 -2.54,1.07 5.99,14.15 -28.76,12.18 -5.99,-14.15 -2.54,1.08 -15.61,-36.85 29.04,-12.3 c 17.27,-23.77 41.92,-43.84 72.22,-56.68 79.41,-33.64 167.54,-4.8 196.85,64.41 29.31,69.21 -11.29,152.57 -90.7,186.21 l -58.19,24.65 3.75,8.85 -5.07,2.15 26.21,61.87 3.38,-1.43 14.62,25.11 28.36,66.95 2.08,-0.88 c 1.65,-0.7 3.5,-0.1 4.11,1.34 l 29.01,68.48 c 0.61,1.44 -0.24,3.18 -1.89,3.88 l -19,8.05 5.6,13.22 2.49,-1.06 22.53,56.53 -43.18,18.29 -24.93,-55.51 z"
       id="path37"
       style="fill:#ffffff;fill-opacity:1" />
    <g
       id="g41"
       style="fill:#ffffff;fill-opacity:1">
      <path
         class="cls-5"
         d="m 3150.41,847.57 2.17,-2.39 10.51,-11.6 -79.88,-72.4 0.04,0.03 -0.09,-0.08 c -0.81,-0.77 -13.55,-13.05 -10.88,-26.13 2.69,-13.18 20.39,-19.97 20.87,-20.15 l 62.44,-21.71 7.73,22.73 24.49,-49.75 -49.74,-24.51 7.44,21.89 -62.63,21.77 c -1.42,0.49 -34.92,12.34 -41.28,43.46 -6.24,30.54 18.52,53.77 20.57,55.63 v 0 c 0,0 79.88,72.4 79.88,72.4 l 8.34,-9.2 v 0 z"
         id="path38"
         style="fill:#ffffff;fill-opacity:1" />
      <path
         class="cls-5"
         d="m 3204.95,656.72 0.95,3.08 4.61,14.96 103.02,-31.76 0.12,-0.04 c 0.17,-0.06 17.91,-5.13 27.97,3.99 9.95,9.03 6.78,27.7 6.68,28.23 l -13.19,64.78 -23.5,-4.95 30.29,46.44 46.46,-30.28 -22.62,-4.77 13.23,-64.97 c 0.31,-1.47 7.21,-36.33 -16.32,-57.67 -23.1,-20.96 -55.74,-11.49 -58.34,-10.69 l -103.02,31.76 3.66,11.87 v 0 z"
         id="path39"
         style="fill:#ffffff;fill-opacity:1" />
      <path
         class="cls-5"
         d="m 3329.76,908.03 24.02,-105.09 -12.11,-2.77 v 0 c 0,0 -3.15,-0.72 -3.15,-0.72 l -15.26,-3.49 -24.02,105.09 V 901 c 0,0 -0.02,0.12 -0.02,0.12 -0.27,1.09 -4.75,18.2 -17.46,22.28 -12.8,4.1 -27.39,-8 -27.79,-8.33 l -49.5,-43.82 16.04,-17.87 -55.37,3.01 2.98,55.37 15.44,-17.21 49.65,43.95 c 1.12,1 27.86,24.41 58.1,14.71 29.71,-9.52 37.83,-42.52 38.43,-45.18 z"
         id="path40"
         style="fill:#ffffff;fill-opacity:1" />
      <path
         class="cls-5"
         d="m 3213.3,814.77 73.75,-81.28 -11,-9.98 c -9.64,0.67 -21.49,-1.95 -30.05,-6.98 l -10.59,11.67 c 4.66,3.31 13.9,7.88 19.69,9.23 l -57.36,63.22 15.57,14.12 z"
         id="path41"
         style="fill:#ffffff;fill-opacity:1" />
    </g>
    <g
       id="g45"
       style="fill:#ffffff;fill-opacity:1">
      <path
         class="cls-2"
         d="m 1054.06,636.74 c -18.29,-18.06 -38.92,-18.86 -55.39,-2.17 -16.39,16.6 -15.32,37.2 2.97,55.26 l 76.11,75.14 52.42,-53.09 z"
         id="path42"
         style="fill:#ffffff;fill-opacity:1" />
      <path
         class="cls-2"
         d="m 1111.83,867.37 c -2.64,-2.6 -2.66,-6.91 -0.06,-9.55 l 117.97,-119.48 c 2.6,-2.64 6.91,-2.66 9.55,-0.06 l 19.05,18.81 49.53,-50.17 -67.05,-66.2 -82.31,83.37 -61.82,62.61 v 0 c 0,0 -0.03,0.04 -0.08,0.09 l -82.31,83.37 67.05,66.2 49.53,-50.17 -19.05,-18.81 z"
         id="path43"
         style="fill:#ffffff;fill-opacity:1" />
      <path
         class="cls-2"
         d="m 1413.35,919.05 c 2.65,2.59 2.67,6.9 0.06,9.55 l -117.97,119.48 c -2.6,2.64 -6.91,2.66 -9.55,0.06 l -19.05,-18.81 -49.53,50.17 34.7,34.26 c 17.83,17.6 46.68,17.42 64.28,-0.41 l 36.96,-37.44 88.73,-89.87 36.96,-37.44 c 17.6,-17.83 17.42,-46.68 -0.41,-64.28 l -34.7,-34.26 -49.53,50.17 19.05,18.81 z"
         id="path44"
         style="fill:#ffffff;fill-opacity:1" />
      <path
         class="cls-2"
         d="m 1271.34,782.92 c -2.6,2.64 -6.91,2.66 -9.55,0.06 l -19.05,-18.81 -108.56,109.95 19.05,18.81 c 2.64,2.6 2.66,6.91 0.06,9.55 l -54.29,54.99 101.85,100.56 54.28,-54.97 c 2.6,-2.64 6.91,-2.66 9.55,-0.06 l 19.05,18.81 108.57,-109.96 -18.95,-18.71 -0.1,-0.09 c -2.64,-2.6 -2.66,-6.91 -0.06,-9.55 l 54.28,-54.97 -101.85,-100.56 -54.28,54.97 z"
         id="path45"
         style="fill:#ffffff;fill-opacity:1" />
    </g>
    <path
       class="cls-5"
       d="m 2959.98,1535.75 -12.89,25.29 c -3.63,7.11 -14.4,6.38 -17.5,-1.22 -0.02,-0.06 -0.05,-0.12 -0.08,-0.18 -1.8,-4.06 -2.46,-8.47 -1.95,-12.79 l -11.67,22.9 c -1.75,3.43 -2.99,7.14 -3.82,10.99 l 19.55,64.36 75.36,-16.33 c -6.12,-3.1 -9.8,-9.46 -9.25,-16.03 0.04,-0.54 0.08,-1.08 0.1,-1.62 0.8,-19.5 6.88,-38.26 15.68,-55.52 l 9.8,-19.22 c 4.33,6.74 8.13,13.78 11.37,21.07 2.36,5.32 3.22,11.1 2.55,16.75 l 15.29,-29.99 c 6.18,-12.13 7.11,-25.96 3.2,-38.71 -4.19,-13.68 -2.27,-28.24 4.08,-40.71 l 10.48,-20.57 c 4.33,6.74 8.14,13.78 11.37,21.07 2.36,5.32 3.22,11.1 2.55,16.75 l 15.29,-29.99 c 4.67,-9.15 6.34,-19.27 5.2,-29.17 -2.77,-24.03 1,-48.1 11.83,-69.36 l 0.74,-1.46 c 4.33,6.74 8.14,13.78 11.37,21.07 2.36,5.32 3.22,11.1 2.55,16.75 l 15.29,-29.99 c 4.67,-9.15 6.34,-19.27 5.2,-29.16 -2.77,-24.03 1,-48.11 11.82,-69.37 l 0.74,-1.46 c 4.33,6.74 8.14,13.79 11.37,21.07 2.36,5.32 3.22,11.1 2.55,16.75 l 15.29,-29.99 c 4.69,-9.19 6.35,-19.35 5.18,-29.28 -1.85,-15.77 -0.75,-31.54 3.24,-46.53 0.15,-0.55 0.36,-1.09 0.61,-1.6 l 64.72,-127.87 c 2.54,-5.03 0.33,-11.26 -4.94,-13.93 l -41.78,-21.14 c -5.27,-2.67 -11.61,-0.76 -14.15,4.27 l -65.69,129.8 c 0,0 -0.42,20.72 -5.07,29.83 l -0.46,0.91 c -4.37,8.57 -17.3,7.91 -21.33,-1.13 -0.03,-0.07 -0.07,-0.15 -0.1,-0.22 -2.36,-5.32 -3.22,-11.1 -2.55,-16.75 l -15.29,29.99 c -9,17.64 -6.86,38.88 5.08,55.17 l -12.8,25.11 c -4.37,8.57 -17.26,7.88 -21.32,-1.15 l -0.1,-0.22 c -2.36,-5.32 -3.22,-11.1 -2.55,-16.75 l -15.29,30 c -9,17.64 -6.86,38.88 5.08,55.17 l -12.86,25.23 c -4.38,8.58 -17.3,7.81 -21.26,-1.27 l -0.1,-0.22 c -2.36,-5.32 -3.22,-11.1 -2.55,-16.75 l -15.29,29.99 c -9,17.64 -6.86,38.88 5.08,55.17 l -12.8,25.11 c -4.37,8.58 -17.26,7.88 -21.32,-1.15 l -0.1,-0.22 c -2.36,-5.32 -3.22,-11.1 -2.55,-16.75 l -15.29,29.99 c -8.99,17.64 -6.86,38.88 5.08,55.17 z"
       id="path46"
       style="fill:#ffffff;fill-opacity:1" />
    <path
       d="m 2956.57,964.3 c 4.17,7.28 6.45,11.48 8.93,15.57 6.78,11.2 17.34,12.1 25.71,1.36 6.15,-7.9 11.25,-16.63 15.8,-25.45 4.32,-8.38 10.59,-12.29 20.46,-11 13.36,1.76 26.7,3.66 42.08,5.78 -4.17,6.56 -6.71,10.52 -9.21,14.49 -7.18,11.4 -3.29,19.82 11.13,21.36 10.83,1.16 21.95,0.8 32.87,0.12 9.6,-0.6 16.08,2.57 19.64,10.56 5.16,11.6 9.97,23.33 15.68,36.76 -8.37,0 -13.68,0 -19,0 -12.77,0.02 -18.77,6.36 -14.21,17.5 4.11,10.04 10.39,19.47 16.83,28.48 5.29,7.4 5.77,13.92 0.06,20.81 -8.28,9.99 -16.71,19.87 -26.86,31.9 -3.88,-6.86 -6.2,-11.2 -8.74,-15.43 -6.71,-11.19 -16.51,-12.52 -24.92,-2.24 -7.04,8.61 -12.72,18.3 -17.99,27.99 -3.97,7.29 -9.66,10.3 -17.91,9.36 -13.83,-1.59 -27.61,-3.53 -43.67,-5.62 4.09,-6.41 6.57,-10.31 9.06,-14.19 7.79,-12.14 2.91,-21.27 -12.64,-22.22 -10.53,-0.65 -21.2,-0.37 -31.74,0.36 -9.17,0.63 -15.32,-2.66 -18.69,-10.13 -5.35,-11.86 -10.2,-23.92 -16.15,-37.98 8.17,0.35 12.76,0.58 17.36,0.74 14.92,0.49 21.3,-7.27 15.23,-20 -4.4,-9.23 -10.34,-17.92 -16.35,-26.38 -4.96,-6.99 -5.5,-13.52 -0.12,-20.09 8.43,-10.28 17.16,-20.34 27.38,-32.4 z"
       id="path47"
       style="fill:#ffffff;fill-opacity:1" />
    <path
       class="cls-1"
       d="m 1193.05,1563.99 -22.25,-49.97 -71.25,31.72 5.04,11.33 -22.45,9.99 -5.04,-11.33 -71.25,31.72 22.25,49.97 37.08,-16.51 12.25,27.51 -2.19,1.44 c -3.84,1.71 -4.94,7.61 -2.47,13.18 2.48,5.57 7.6,8.69 11.44,6.98 l 2.19,-1.44 3.2,7.19 -2.19,1.44 c -3.84,1.71 -4.95,7.61 -2.47,13.18 2.48,5.57 7.6,8.69 11.44,6.98 l 2.19,-1.44 3.2,7.19 -2.19,1.44 c -3.84,1.71 -4.95,7.61 -2.47,13.18 2.48,5.57 7.6,8.69 11.44,6.98 l 2.19,-1.44 3.2,7.19 -2.19,1.44 c -3.84,1.71 -4.95,7.61 -2.47,13.18 2.48,5.57 7.6,8.69 11.44,6.98 l 2.19,-1.44 3.2,7.19 -2.19,1.44 c -3.84,1.71 -4.95,7.61 -2.47,13.18 2.48,5.57 7.6,8.69 11.44,6.98 l 2.19,-1.44 3.2,7.19 -2.19,1.44 c -3.84,1.71 -4.95,7.61 -2.47,13.18 2.48,5.57 7.6,8.69 11.44,6.98 l 2.19,-1.44 3.2,7.19 -2.19,1.44 c -3.84,1.71 -4.95,7.61 -2.47,13.18 2.48,5.57 7.6,8.69 11.44,6.98 l 2.19,-1.44 3.2,7.19 -2.19,1.44 c -3.84,1.71 -4.95,7.61 -2.47,13.18 2.48,5.57 7.6,8.69 11.44,6.98 l 2.19,-1.44 2.26,5.08 19.74,9.4 67.8,-30.18 3.27,-19.64 -8.97,-20.14 3.16,-2.09 c 3.84,-1.71 4.94,-7.61 2.47,-13.18 -2.47,-5.57 -7.6,-8.69 -11.44,-6.98 l -3.16,2.09 -3.2,-7.19 3.16,-2.09 c 3.84,-1.71 4.94,-7.61 2.47,-13.18 -2.48,-5.57 -7.6,-8.69 -11.44,-6.98 l -3.16,2.09 -3.2,-7.19 3.16,-2.09 c 3.84,-1.71 4.94,-7.61 2.47,-13.18 -2.48,-5.57 -7.6,-8.69 -11.44,-6.98 l -3.16,2.09 -3.2,-7.19 3.16,-2.09 c 3.84,-1.71 4.94,-7.61 2.47,-13.18 -2.48,-5.57 -7.6,-8.69 -11.44,-6.98 l -3.16,2.09 -3.2,-7.19 3.16,-2.09 c 3.84,-1.71 4.95,-7.61 2.47,-13.18 -2.48,-5.57 -7.6,-8.69 -11.44,-6.98 l -3.16,2.09 -3.2,-7.19 3.16,-2.09 c 3.84,-1.71 4.94,-7.61 2.47,-13.18 -2.48,-5.57 -7.6,-8.69 -11.44,-6.98 l -3.16,2.09 -3.2,-7.19 3.16,-2.09 c 3.84,-1.71 4.95,-7.61 2.47,-13.18 -2.48,-5.57 -7.6,-8.69 -11.44,-6.98 l -3.16,2.09 -3.2,-7.19 3.16,-2.09 c 3.84,-1.71 4.95,-7.61 2.47,-13.18 -2.48,-5.57 -7.6,-8.69 -11.44,-6.98 l -3.16,2.09 -5.54,-12.45 37.07,-16.5 z"
       id="path48"
       style="fill:#ffffff;fill-opacity:1" />
    <path
       d="m 1470.2,1940.59 v 117.39 c 0,4.55 -1.81,8.91 -5.02,12.13 l -14.78,14.78 c -3.22,3.22 -7.58,5.02 -12.13,5.02 h -117.39 c -4.55,0 -8.91,-1.81 -12.13,-5.02 l -14.78,-14.78 c -3.22,-3.22 -5.02,-7.58 -5.02,-12.13 v -117.39 c 0,-4.55 1.81,-8.91 5.02,-12.13 l 14.78,-14.78 c 3.22,-3.22 7.58,-5.02 12.13,-5.02 h 117.39 c 4.55,0 8.91,1.81 12.13,5.02 l 14.78,14.78 c 3.22,3.22 5.02,7.58 5.02,12.13 z m 70.35,14 h -34.44 c -4.35,0 -7.9,-3.56 -7.9,-7.9 v -7.57 c 0,-4.35 3.56,-7.9 7.9,-7.9 h 34.44 c 4.35,0 7.9,3.56 7.9,7.9 v 7.57 c 0,4.35 -3.56,7.9 -7.9,7.9 z m 0,39.15 h -34.44 c -4.35,0 -7.9,-3.56 -7.9,-7.9 v -7.57 c 0,-4.35 3.56,-7.9 7.9,-7.9 h 34.44 c 4.35,0 7.9,3.56 7.9,7.9 v 7.57 c 0,4.35 -3.56,7.9 -7.9,7.9 z m 0,41.84 h -34.44 c -4.35,0 -7.9,-3.56 -7.9,-7.9 v -7.57 c 0,-4.35 3.56,-7.9 7.9,-7.9 h 34.44 c 4.35,0 7.9,3.56 7.9,7.9 v 7.57 c 0,4.35 -3.56,7.9 -7.9,7.9 z m 0,38.87 h -34.44 c -4.35,0 -7.9,-3.56 -7.9,-7.9 v -7.57 c 0,-4.35 3.56,-7.9 7.9,-7.9 h 34.44 c 4.35,0 7.9,3.56 7.9,7.9 v 7.57 c 0,4.35 -3.56,7.9 -7.9,7.9 z M 1331.26,1844.5 v 34.44 c 0,4.35 -3.56,7.9 -7.9,7.9 h -7.57 c -4.35,0 -7.9,-3.56 -7.9,-7.9 v -34.44 c 0,-4.35 3.56,-7.9 7.9,-7.9 h 7.57 c 4.35,0 7.9,3.56 7.9,7.9 z m 39.15,0 v 34.44 c 0,4.35 -3.56,7.9 -7.9,7.9 h -7.57 c -4.35,0 -7.9,-3.56 -7.9,-7.9 v -34.44 c 0,-4.35 3.56,-7.9 7.9,-7.9 h 7.57 c 4.35,0 7.9,3.56 7.9,7.9 z m 41.84,0 v 34.44 c 0,4.35 -3.56,7.9 -7.9,7.9 h -7.57 c -4.35,0 -7.9,-3.56 -7.9,-7.9 v -34.44 c 0,-4.35 3.56,-7.9 7.9,-7.9 h 7.57 c 4.35,0 7.9,3.56 7.9,7.9 z m 38.87,0 v 34.44 c 0,4.35 -3.56,7.9 -7.9,7.9 h -7.57 c -4.35,0 -7.9,-3.56 -7.9,-7.9 v -34.44 c 0,-4.35 3.56,-7.9 7.9,-7.9 h 7.57 c 4.35,0 7.9,3.56 7.9,7.9 z m -194.33,112.12 h -34.44 c -4.35,0 -7.9,-3.56 -7.9,-7.9 v -7.57 c 0,-4.35 3.56,-7.9 7.9,-7.9 h 34.44 c 4.35,0 7.9,3.56 7.9,7.9 v 7.57 c 0,4.35 -3.56,7.9 -7.9,7.9 z m 0,39.16 h -34.44 c -4.35,0 -7.9,-3.56 -7.9,-7.9 v -7.57 c 0,-4.35 3.56,-7.9 7.9,-7.9 h 34.44 c 4.35,0 7.9,3.56 7.9,7.9 v 7.57 c 0,4.35 -3.56,7.9 -7.9,7.9 z m 0,41.83 h -34.44 c -4.35,0 -7.9,-3.56 -7.9,-7.9 v -7.57 c 0,-4.35 3.56,-7.9 7.9,-7.9 h 34.44 c 4.35,0 7.9,3.56 7.9,7.9 v 7.57 c 0,4.35 -3.56,7.9 -7.9,7.9 z m 0,38.87 h -34.44 c -4.35,0 -7.9,-3.56 -7.9,-7.9 v -7.57 c 0,-4.35 3.56,-7.9 7.9,-7.9 h 34.44 c 4.35,0 7.9,3.56 7.9,7.9 v 7.57 c 0,4.35 -3.56,7.9 -7.9,7.9 z m 74.47,47.26 v 34.44 c 0,4.35 -3.56,7.9 -7.9,7.9 h -7.57 c -4.35,0 -7.9,-3.56 -7.9,-7.9 v -34.44 c 0,-4.35 3.56,-7.9 7.9,-7.9 h 7.57 c 4.35,0 7.9,3.56 7.9,7.9 z m 39.15,0 v 34.44 c 0,4.35 -3.56,7.9 -7.9,7.9 h -7.57 c -4.35,0 -7.9,-3.56 -7.9,-7.9 v -34.44 c 0,-4.35 3.56,-7.9 7.9,-7.9 h 7.57 c 4.35,0 7.9,3.56 7.9,7.9 z m 41.84,0 v 34.44 c 0,4.35 -3.56,7.9 -7.9,7.9 h -7.57 c -4.35,0 -7.9,-3.56 -7.9,-7.9 v -34.44 c 0,-4.35 3.56,-7.9 7.9,-7.9 h 7.57 c 4.35,0 7.9,3.56 7.9,7.9 z m 38.87,0 v 34.44 c 0,4.35 -3.56,7.9 -7.9,7.9 h -7.57 c -4.35,0 -7.9,-3.56 -7.9,-7.9 v -34.44 c 0,-4.35 3.56,-7.9 7.9,-7.9 h 7.57 c 4.35,0 7.9,3.56 7.9,7.9 z"
       id="path49"
       style="fill:#ffffff;fill-opacity:1" />
    <g
       id="g52"
       style="fill:#ffffff;fill-opacity:1">
      <polygon
         class="cls-1"
         points="2540.32,1090.68 2535.3,1109.95 2532.8,1119.58 2530.3,1129.22 2496.86,1113.88 2479.51,1105.92 2471.33,1123.74 2482.54,1128.88 2506.03,1139.65 2525.29,1148.49 2525.29,1148.49 2522.78,1158.13 2520.28,1167.76 2515.27,1187.03 2534,1195.63 2539.01,1176.35 2541.51,1166.72 2544.02,1157.09 2620.28,1192.07 2620.28,1192.07 2617.77,1201.71 2615.27,1211.34 2610.25,1230.61 2628.99,1239.21 2634,1219.93 2636.5,1210.3 2639.01,1200.67 2658.27,1209.5 2658.27,1209.5 2686.48,1222.45 2715.26,1235.65 2712.76,1245.28 2710.25,1254.92 2705.24,1274.19 2723.98,1282.79 2728.99,1263.51 2731.49,1253.88 2734,1244.25 2753.26,1253.08 2790.99,1270.39 2810.25,1279.23 2807.74,1288.86 2805.24,1298.5 2800.23,1317.77 2818.96,1326.37 2823.97,1307.09 2826.48,1297.46 2828.98,1287.82 2879.7,1311.09 2879.77,1311.13 2879.91,1311.19 2908.27,1324.2 2917.77,1328.56 2925.94,1310.74 2916.44,1306.38 2879.97,1289.65 2878.45,1288.95 2873.88,1286.86 2833.99,1268.55 2836.5,1258.92 2839,1249.28 2844.01,1230.01 2825.28,1221.42 2820.27,1240.69 2817.76,1250.32 2815.26,1259.96 2739,1224.97 2741.51,1215.34 2744.01,1205.7 2749.02,1186.43 2733.33,1179.23 2730.29,1177.84 2725.49,1196.3 2725.28,1197.11 2722.78,1206.74 2720.27,1216.38 2701.01,1207.54 2697.98,1206.15 2663.28,1190.23 2644.02,1181.39 2646.52,1171.76 2649.03,1162.12 2654.04,1142.85 2635.3,1134.26 2630.29,1153.53 2627.79,1163.16 2625.28,1172.8 2549.03,1137.81 2551.53,1128.18 2554.04,1118.54 2559.05,1099.27 "
         id="polygon49"
         style="fill:#ffffff;fill-opacity:1" />
      <polygon
         class="cls-1"
         points="2830.26,1358.91 2773.01,1332.64 2783.02,1294.1 2745.29,1276.79 2735.27,1315.33 2678.02,1289.06 2687.83,1251.32 2688.03,1250.52 2650.3,1233.21 2640.29,1271.75 2583.03,1245.48 2593.05,1206.94 2555.32,1189.63 2545.3,1228.17 2488.04,1201.9 2498.06,1163.36 2460.2,1145.99 2435.67,1199.44 2910.61,1417.34 2931.04,1372.79 2935.27,1363.57 2925.73,1359.32 2925.63,1359.53 2840.28,1320.37 "
         id="polygon50"
         style="fill:#ffffff;fill-opacity:1" />
      <polygon
         class="cls-1"
         points="2482.32,1030.3 2490.49,1012.48 2443,990.69 2308.11,1284.7 2355.6,1306.49 2355.6,1306.49 2488.59,1367.5 2593.07,1415.44 2643.14,1317.12 2400.61,1208.39 2433.27,1137.21 2457.79,1083.75 "
         id="polygon51"
         style="fill:#ffffff;fill-opacity:1" />
      <polygon
         class="cls-1"
         points="2668.28,1035.06 2732.23,986.36 2751.7,943.92 2561.73,856.76 2553.55,874.58 2715.03,948.66 2706.85,966.48 2545.37,892.4 2542.25,899.2 2547.04,979.44 2572.02,990.9 2556.64,1048.55 2555.57,1048.06 2516.64,1030.2 2492.12,1083.66 2520.48,1096.67 2530.5,1058.13 2587.75,1084.4 2577.74,1122.94 2615.47,1140.25 2625.48,1101.71 2682.74,1127.98 2672.72,1166.52 2710.45,1183.83 2720.47,1145.29 2777.73,1171.56 2767.71,1210.1 2805.44,1227.41 2815.46,1188.87 2872.71,1215.14 2862.7,1253.68 2957.55,1297.2 2967.39,1300.81 2971.14,1292.65 2991.58,1248.1 2613.22,1074.51 2628.9,1017 "
         id="polygon52"
         style="fill:#ffffff;fill-opacity:1" />
    </g>
    <g
       id="g53"
       style="fill:#ffffff;fill-opacity:1">
      <path
         class="cls-5"
         d="m 345.14,266.61 c -7.91,7.54 -8.67,20.49 -1.71,28.92 6.96,8.43 19.01,9.14 26.91,1.6 l 21.38,-20.4 12.8,15.5 -1.71,1.63 c -4.04,3.85 -4.43,10.47 -0.88,14.77 l 21.12,25.58 c 3.55,4.3 9.71,4.67 13.75,0.82 l 1.71,-1.63 44.95,54.42 c 2.95,3.57 8.05,3.87 11.39,0.68 1.67,-1.6 2.59,-3.77 2.72,-5.98 0.13,-2.21 -0.52,-4.48 -2,-6.26 l -44.95,-54.42 1.71,-1.63 c 4.04,-3.85 4.43,-10.47 0.88,-14.77 l -21.12,-25.58 c -3.55,-4.3 -9.71,-4.67 -13.75,-0.82 l -1.71,1.63 -12.8,-15.5 31.2,-29.78 12.8,15.5 -1.71,1.63 c -4.04,3.85 -4.43,10.47 -0.88,14.77 l 21.12,25.58 c 3.55,4.3 9.71,4.67 13.75,0.82 l 1.71,-1.63 24.79,30.01 c 2.95,3.57 8.05,3.87 11.39,0.68 1.67,-1.6 2.59,-3.77 2.72,-5.98 0.13,-2.22 -0.52,-4.48 -2,-6.26 l -24.79,-30.01 1.71,-1.63 c 4.04,-3.85 4.43,-10.47 0.88,-14.77 L 475.4,238.52 c -3.55,-4.3 -9.71,-4.67 -13.75,-0.82 l -1.71,1.63 -12.8,-15.5 21.38,-20.4 c 3.95,-3.77 6.12,-8.9 6.43,-14.13 0.31,-5.23 -1.24,-10.58 -4.72,-14.79 -6.96,-8.43 -19.01,-9.14 -26.91,-1.6 l -98.2,93.71 z"
         id="path52"
         style="fill:#ffffff;fill-opacity:1" />
      <path
         class="cls-5"
         d="m 279.86,88.45 c -27.01,25.78 -29.63,70.01 -5.86,98.8 l 48.01,58.13 29.85,-28.48 -30.25,-36.63 c -4.17,-5.05 -3.71,-12.8 1.03,-17.32 l 20.97,-20.01 c 4.74,-4.52 11.96,-4.09 16.13,0.96 l 30.25,36.63 29.85,-28.48 -48,-58.13 C 348.06,65.13 306.89,62.69 279.88,88.47 Z"
         id="path53"
         style="fill:#ffffff;fill-opacity:1" />
    </g>
    <path
       class="cls-1"
       d="m 2456,1684.65 c 5.07,-3.92 9.26,-9 12.1,-15.11 11.06,-23.72 8.19,-44.65 2.39,-100.09 -0.18,-1.77 -0.78,-3.25 -1.65,-4.39 -2.21,-2.92 -6.24,-3.62 -10.01,-1.07 -43.96,29.67 -64.06,42.47 -73.98,63.75 -10.59,22.71 -1.25,50.34 23.09,61.69 16.59,7.74 35.19,5.17 48.06,-4.78 0,0 0,0 -0.01,0 0,0 0,0 0,0 z"
       id="path54"
       style="fill:#ffffff;fill-opacity:1" />
    <path
       class="cls-1"
       d="m 2728.87,1529.48 -407.23,-195.83 c -4.7,-2.26 -10.39,-0.26 -12.64,4.43 l -2.05,4.27 c -3.39,7.04 -0.4,15.58 6.65,18.96 l 64.03,30.79 -6.16,12.81 c -3.39,7.04 -0.4,15.58 6.64,18.96 l 12.81,6.16 -22.58,46.95 c -3.39,7.04 -0.4,15.58 6.65,18.96 l 193.8,93.19 c 7.04,3.39 15.58,0.4 18.96,-6.65 l 2.05,-4.27 12.32,-25.61 8.21,-17.07 12.81,6.16 c 7.04,3.39 15.58,0.39 18.96,-6.65 l 6.16,-12.81 64.03,30.79 c 7.04,3.39 15.58,0.4 18.96,-6.65 l 2.05,-4.27 c 2.26,-4.7 0.26,-10.38 -4.43,-12.64 z"
       id="path55"
       style="fill:#ffffff;fill-opacity:1" />
    <g
       id="g58"
       style="fill:#ffffff;fill-opacity:1">
      <polygon
         class="cls-5"
         points="1682.2,1680.72 1655.7,1638.35 1549.05,1685.18 1576.56,1747.82 1861.44,1622.74 1833.94,1560.1 1749.15,1597.32 1762.45,1645.48 "
         id="polygon55"
         style="fill:#ffffff;fill-opacity:1" />
      <rect
         class="cls-5"
         x="1657.17"
         y="1885.05"
         width="311.14001"
         height="19.07"
         transform="rotate(-23.7,1813.1085,1894.8304)"
         id="rect55"
         style="fill:#ffffff;fill-opacity:1" />
      <path
         class="cls-5"
         d="m 1587.48,1768.93 69.53,158.37 73.08,-32.09 -24.46,-55.71 49.9,-21.91 4.58,3.4 c 5.67,4.27 12.87,5.96 19.84,4.65 9.72,-2.88 16.7,-11.39 17.62,-21.48 l 0.68,-5.71 50.76,-22.29 24.46,55.71 68.27,-29.98 -69.39,-158.05 -68.27,29.98 28.66,65.28 -49.9,21.91 -4.58,-3.4 c -9.8,-8.07 -24.29,-6.66 -32.36,3.14 -3.18,3.87 -5.02,8.67 -5.22,13.68 l -0.64,5.69 -50.58,22.21 -28.78,-65.55 -73.22,32.15 z"
         id="path56"
         style="fill:#ffffff;fill-opacity:1" />
      <path
         class="cls-5"
         d="m 1753.38,1843.14 -21.64,9.5 16.49,37.56 107.24,-47.08 -16.49,-37.56 -22.68,9.96 c -3.73,15.82 -15.85,28.32 -31.55,32.52 -10.7,2.37 -21.9,0.62 -31.37,-4.9 z"
         id="path57"
         style="fill:#ffffff;fill-opacity:1" />
      <polygon
         class="cls-5"
         points="1686.97,1652.72 1735.83,1631.27 1722.53,1583.11 1722.53,1583.11 1697.06,1490.73 1609.69,1529.09 "
         id="polygon57"
         style="fill:#ffffff;fill-opacity:1" />
      <path
         class="cls-5"
         d="m 1783.3,1737.04 21.87,-9.6 -20.69,-47.13 -107.24,47.08 20.69,47.13 22.68,-9.96 c 3.73,-15.82 15.85,-28.32 31.55,-32.52 10.64,-2.34 21.77,-0.55 31.14,4.99 z"
         id="path58"
         style="fill:#ffffff;fill-opacity:1" />
      <rect
         class="cls-5"
         x="1671.39"
         y="1920.65"
         width="311.14001"
         height="19.42"
         transform="rotate(-23.7,1827.3218,1930.603)"
         id="rect58"
         style="fill:#ffffff;fill-opacity:1" />
    </g>
    <path
       class="cls-5"
       d="m 2920.57,1786.43 -58,46.42 c 3.86,8.62 3.99,19.24 -0.53,28.99 -7.86,16.97 -26.77,24.92 -42.25,17.75 -15.47,-7.17 -21.65,-26.73 -13.79,-43.7 4.54,-9.81 12.78,-16.6 21.92,-19.2 l -2.23,-73.31 -42,27.64 -19.7,42.54 -21.89,47.27 -170.73,368.72 142.25,65.87 170.73,-368.72 21.89,-47.27 19.7,-42.54 -5.37,-50.47 z"
       id="path59"
       style="fill:#ffffff;fill-opacity:1" />
    <polygon
       class="cls-5"
       points="2921.51,1766.81 2844.61,1827.84 2842.03,1730 2918.31,1668.68 "
       id="polygon59"
       style="fill:#ffffff;fill-opacity:1" />
    <path
       class="cls-1"
       d="m 2532.15,1820.42 -88.72,-42.43 -89.27,88.92 -60.75,20.95 c -9.45,-8.56 -23.16,-11.88 -35.98,-7.45 -9.27,3.2 -16.32,9.82 -20.21,17.96 -3.89,8.14 -4.62,17.79 -1.29,27.01 l 50.34,160.65 c -3.84,9.06 -4.64,19.48 -1.54,29.71 3.55,11.72 11.51,21.64 23.69,27.47 9.7,4.64 20.77,5.9 31.84,2.72 l 161.98,-35.03 -3.04,6.36 c -14.7,30.73 -1.32,67.71 29.86,82.62 l 125.45,-262.33 c -31.18,-14.91 -68.38,-2.06 -83.08,28.67 l -7.42,15.52 -198.1,61.98 -48.86,-107.67 55.24,-19.05 126.57,14.48 41.82,-87.44 -35.6,12.28 c 0,0 -5.91,12.39 -7.59,15.91 -8.4,17.56 -29.66,24.88 -47.48,16.36 -17.82,-8.52 -25.45,-29.66 -17.05,-47.23 8.4,-17.57 29.65,-24.89 47.47,-16.37 3.54,1.69 16.13,7.71 16.13,7.71 l 35.6,-12.28 z"
       id="path60"
       style="fill:#ffffff;fill-opacity:1" />
    <g
       id="g62">
      <polygon
         class="cls-5"
         points="1865.16,2540.33 2028.22,2631.22 2191.28,2540.33 2028.22,2449.46 "
         id="polygon60"
         style="fill:#ffffff;fill-opacity:1" />
      <polygon
         class="cls-5"
         points="1865.16,2612.8 2028.22,2703.69 2191.28,2612.8 2146.27,2587.72 2028.22,2653.51 1910.18,2587.72 "
         id="polygon61"
         style="fill:#ffffff;fill-opacity:1" />
      <polygon
         class="cls-5"
         points="1865.16,2683.8 2028.22,2774.68 2191.28,2683.8 2146.27,2658.71 2028.22,2724.5 1910.18,2658.71 "
         id="polygon62"
         style="fill:#ffffff;fill-opacity:1" />
    </g>
    <g
       id="NewGroupe0"
       style="fill:#ffffff;fill-opacity:1">
      <g
         id="NewGroup22-0"
         style="fill:#ffffff;fill-opacity:1">
        <g
           id="g64"
           style="fill:#ffffff;fill-opacity:1">
          <path
             class="cls-1"
             d="m 2062.29,1810.58 15.27,7.43 c 4.22,2.05 9.3,0.29 11.35,-3.92 l 93.35,-191.93 c 8.21,-16.87 28.53,-23.89 45.4,-15.69 l 53.46,26 c 4.22,2.05 9.3,0.3 11.35,-3.92 l 7.43,-15.27 c 2.05,-4.22 0.3,-9.3 -3.92,-11.35 l -53.46,-26 c -33.74,-16.41 -74.4,-2.36 -90.81,31.38 l -93.35,191.93 c -2.05,4.22 -0.3,9.3 3.92,11.35 v 0 z"
             id="path62"
             style="fill:#ffffff;fill-opacity:1" />
          <path
             class="cls-1"
             d="m 2190.53,1682.82 -71.06,146.11 c -2.05,4.22 -0.3,9.3 3.92,11.35 l 15.27,7.43 c 4.22,2.05 9.3,0.29 11.35,-3.92 l 71.06,-146.11 c 4.1,-8.44 14.27,-11.95 22.7,-7.84 l 38.18,18.57 c 4.22,2.05 9.3,0.29 11.35,-3.92 l 7.43,-15.27 c 2.05,-4.22 0.29,-9.3 -3.92,-11.35 l -38.18,-18.57 c -25.31,-12.31 -55.8,-1.77 -68.1,23.53 v 0 z"
             id="path63"
             style="fill:#ffffff;fill-opacity:1" />
          <path
             class="cls-1"
             d="m 2229.33,1758.36 -48.78,100.29 c -2.05,4.22 -0.3,9.3 3.92,11.35 l 15.27,7.43 c 4.22,2.05 9.3,0.3 11.35,-3.92 l 48.78,-100.29 53.46,26 c 4.22,2.05 9.3,0.29 11.35,-3.92 l 7.43,-15.27 c 2.05,-4.22 0.29,-9.3 -3.92,-11.35 l -53.46,-26 c -16.87,-8.21 -37.2,-1.18 -45.4,15.69 v 0 z"
             id="path64"
             style="fill:#ffffff;fill-opacity:1" />
        </g>
      </g>
    </g>
    <polygon
       class="cls-1"
       points="2440.44,2643.44 2426.35,2662.86 2426.35,2662.88 2474.52,2697.79 2259.14,2697.79 2259.14,2721.79 2474.51,2721.79 2426.35,2756.67 2440.44,2776.12 2507.15,2727.79 2507.15,2776.53 2531.14,2776.53 2531.14,2643 2507.15,2643 2507.15,2691.77 "
       id="polygon64"
       style="fill:#ffffff;fill-opacity:1" />
    <polygon
       class="cls-1"
       points="1608.03,2776.09 1622.12,2756.67 1622.12,2756.65 1573.95,2721.74 1789.33,2721.74 1789.33,2697.74 1573.96,2697.74 1622.12,2662.86 1608.03,2643.41 1541.32,2691.74 1541.32,2643 1517.32,2643 1517.32,2776.53 1541.32,2776.53 1541.32,2727.76 "
       id="polygon65"
       style="fill:#ffffff;fill-opacity:1" />
    <path
       d="m 2840.8,1608.39 c -6.62,-3.36 -12.82,-4.25 -17.81,-4.96 -2.4,-0.34 -5.68,-0.81 -6.25,-1.42 -0.16,-0.17 -1.55,-1.92 -1.37,-10.85 l 0.2,-9.9 -23.98,5.21 -0.13,6.17 c -0.62,30.61 15.57,32.93 26.29,34.47 3.88,0.56 7.54,1.08 10.94,2.81 1.47,0.74 3.89,2.29 3.59,4.34 -0.23,1.6 -1.87,4.3 -5.74,6.67 -0.11,0.07 -2.4,1.36 -12.97,3.94 l 0.06,-1.55 -19.48,1.58 c -0.66,-0.99 -1.46,-1.89 -2.37,-2.67 -3.25,-2.8 -7.71,-3.91 -12.23,-3.05 l -157.89,30 -25.45,-1.78 -0.54,14.63 -114.1,22.96 -0.27,7.2 -75.59,15.21 -25.18,28.7 99.88,-20.1 -0.27,7.2 114.1,-22.96 -0.58,15.61 29.56,-13.8 158.14,-33.59 c 5.95,-1.26 10.92,-5.63 13.19,-11.07 l 18.02,-5.77 0.09,-2.39 c 16.64,-3.82 22.23,-6.44 25,-8.13 10.07,-6.16 16.91,-15.66 18.3,-25.41 1.64,-11.44 -4.03,-21.65 -15.17,-27.29 z"
       id="path65"
       style="fill:#ffffff;fill-opacity:1" />
    <path
       class="cls-1"
       d="m 1555.11,1081.28 13.26,-13.26 -5.93,-5.93 4.82,-4.82 c 1.87,1.59 4.59,1.59 6.24,-0.06 1.65,-1.65 1.65,-4.37 0.06,-6.24 l 2.29,-2.29 c 1.87,1.59 4.59,1.59 6.24,-0.07 1.65,-1.65 1.65,-4.36 0.06,-6.24 l 2.29,-2.29 c 1.87,1.59 4.59,1.59 6.24,-0.07 1.65,-1.65 1.65,-4.37 0.06,-6.24 l 2.29,-2.29 c 1.87,1.59 4.59,1.59 6.24,-0.07 1.75,-1.75 1.65,-4.69 -0.23,-6.56 l -52.15,-42.08 c -1.87,-1.87 -4.81,-1.97 -6.56,-0.22 -1.49,1.49 -1.63,3.84 -0.49,5.66 l -2.44,2.44 c -1.82,-1.14 -4.17,-1 -5.66,0.49 -1.49,1.49 -1.63,3.84 -0.49,5.66 l -2.45,2.45 c -1.82,-1.14 -4.17,-1 -5.66,0.49 -1.49,1.49 -1.63,3.84 -0.49,5.66 l -2.45,2.45 c -1.82,-1.14 -4.17,-1 -5.66,0.49 -1.34,1.34 -1.59,3.36 -0.8,5.08 l -5.94,-5.94 -13.31,13.31 -17.92,-14.52 -52.09,52.09 -5.88,8.56 -12.63,54.86 -11.73,50.95 8.5,8.5 50.95,-11.73 55.72,-12.83 60.57,-56.98 -14.93,-18.43 z"
       id="path66"
       style="fill:#ffffff;fill-opacity:1" />
    <g
       id="g72">
      <path
         class="cls-5"
         d="m 2420.84,2356 44.66,-92.14 89.09,43.19 c 2.79,-5.72 5.76,-11.63 6.19,-12.52 0.08,-0.16 0.23,-0.48 0.45,-0.92 l -95.94,-46.51 c -3.72,-1.81 -8.21,-0.25 -10.01,3.47 l -48.01,99.05 c 1.75,0.81 3,1.4 3.36,1.57 0.79,0.38 5.32,2.48 10.2,4.81 z"
         id="path67"
         style="fill:#ffffff;fill-opacity:1" />
      <path
         class="cls-5"
         d="m 2678.15,2366.94 c 6.7,3.25 9.51,11.35 6.27,18.05 l -9.39,19.38 c -15.85,0.59 -26.87,-8.78 -33.06,-28.12 l -98.43,203.06 -52.6,-25.5 c -1.71,3.63 -4.02,8.45 -6.48,13.52 l 52.61,25.5 c -5.34,13.45 0.53,28.94 13.76,35.36 13.86,6.72 30.54,0.93 37.26,-12.93 l 0.57,-1.18 c 1.21,-0.72 2.24,-1.79 2.9,-3.16 l 106.35,-219.39 c 6.86,-14.14 0.93,-31.22 -13.22,-38.08 l -81.84,-39.67 c -2.2,4.54 -4.5,9.26 -6.57,13.47 z"
         id="path68"
         style="fill:#ffffff;fill-opacity:1" />
      <path
         class="cls-5"
         d="m 2343.25,2498.88 89.54,43.4 c 2.18,-4.5 4.37,-8.99 6.59,-13.46 l -82.85,-40.16 40.1,-82.73 c -4.36,-2.09 -9.08,-4.38 -13.49,-6.53 l -43.37,89.46 c -1.81,3.72 -0.25,8.21 3.47,10.01 z"
         id="path69"
         style="fill:#ffffff;fill-opacity:1" />
      <path
         class="cls-5"
         d="m 2494.9,2451.8 c 3.32,-1.15 5.08,-4.78 3.93,-8.1 l -1.43,-4.11 c 1.02,-0.79 2,-1.66 2.93,-2.57 -1.59,-2.11 -2.76,-4.49 -3.48,-7.01 -0.05,-0.17 -0.1,-0.35 -0.14,-0.53 -0.55,-0.21 -1.1,-0.45 -1.63,-0.71 -1.63,-0.79 -3.13,-1.77 -4.47,-2.9 -6.51,6.82 -16.93,9 -25.87,4.66 -11.09,-5.38 -15.73,-18.73 -10.35,-29.83 4.94,-10.2 16.64,-14.94 27.11,-11.46 0.24,-0.49 0.5,-0.96 0.77,-1.43 -2.45,-5.54 -3.39,-14.21 -3.39,-14.21 -1.49,-0.18 -2.98,-0.26 -4.46,-0.26 l -1.43,-4.11 c -1.15,-3.32 -4.78,-5.08 -8.1,-3.93 l -10.84,3.76 c -3.32,1.15 -5.08,4.78 -3.93,8.11 l 1.43,4.11 c -1.17,0.92 -2.28,1.91 -3.34,2.97 l -3.91,-1.9 c -3.17,-1.53 -6.97,-0.21 -8.5,2.95 l -5.01,10.33 c -1.53,3.17 -0.21,6.97 2.95,8.5 l 3.91,1.9 c -0.18,1.49 -0.26,2.98 -0.26,4.46 l -4.11,1.43 c -3.32,1.15 -5.08,4.78 -3.93,8.1 l 3.76,10.84 c 1.15,3.32 4.78,5.08 8.1,3.93 l 4.11,-1.42 c 0.92,1.17 1.9,2.28 2.97,3.34 l -1.9,3.91 c -1.53,3.17 -0.22,6.97 2.95,8.51 l 10.33,5.01 c 3.17,1.53 6.97,0.21 8.51,-2.96 l 1.9,-3.91 c 1.49,0.18 2.98,0.26 4.46,0.26 l 1.42,4.11 c 1.15,3.32 4.78,5.08 8.11,3.93 l 10.84,-3.76 v 0 z"
         id="path70"
         style="fill:#ffffff;fill-opacity:1" />
      <path
         class="cls-5"
         d="m 2555.91,2478.41 -3.92,-1.9 c 0.18,-1.49 0.27,-2.98 0.26,-4.46 l 4.11,-1.43 c 3.32,-1.15 5.08,-4.78 3.93,-8.1 l -3.76,-10.84 c -0.21,-0.61 -0.51,-1.17 -0.87,-1.67 l -1.41,0.49 c -5.39,1.87 -11.19,1.53 -16.32,-0.96 -0.54,-0.26 -1.06,-0.54 -1.57,-0.85 -4.78,2.11 -10.3,2.47 -15.5,0.7 -0.37,0.3 2.36,1.8 4.04,2.62 11.1,5.38 15.73,18.73 10.35,29.83 -5.38,11.1 -18.73,15.73 -29.83,10.35 -9.17,-4.45 -13.93,-14.35 -12.26,-23.92 l -4.19,1.45 c -3.55,1.23 -7.27,1.51 -10.87,0.84 -0.03,0.53 -0.04,1.07 -0.04,1.6 l -4.11,1.43 c -3.32,1.15 -5.08,4.78 -3.93,8.11 l 3.76,10.84 c 1.15,3.32 4.78,5.08 8.1,3.93 l 4.11,-1.43 c 0.91,1.16 1.9,2.28 2.97,3.34 l -1.9,3.91 c -1.53,3.17 -0.21,6.97 2.95,8.5 l 10.33,5.01 c 3.16,1.53 6.97,0.21 8.5,-2.95 l 1.9,-3.91 c 1.49,0.18 2.98,0.26 4.46,0.26 l 1.42,4.11 c 1.15,3.32 4.78,5.08 8.11,3.93 l 10.84,-3.76 c 3.32,-1.16 5.08,-4.78 3.93,-8.11 l -1.43,-4.11 c 1.17,-0.92 2.28,-1.9 3.34,-2.97 l 3.92,1.9 c 3.17,1.53 6.97,0.21 8.5,-2.95 l 5.01,-10.33 c 1.53,-3.17 0.21,-6.97 -2.95,-8.5 v 0 z"
         id="path71"
         style="fill:#ffffff;fill-opacity:1" />
      <path
         class="cls-5"
         d="m 2523.61,2375.78 c 6.52,-6.82 16.92,-8.99 25.87,-4.66 11.09,5.38 15.73,18.73 10.35,29.83 -4.94,10.2 -16.64,14.94 -27.11,11.46 -0.92,-0.31 -1.82,-0.67 -2.72,-1.11 -4.75,-2.3 -8.32,-6.07 -10.42,-10.5 l -1.6,-4.6 c -1.1,-4.79 -0.64,-9.96 1.67,-14.73 1.04,-2.15 2.38,-4.06 3.95,-5.7 v 0 z m -24.61,9.13 3.92,1.9 c -0.18,1.48 -0.27,2.98 -0.26,4.45 l -4.11,1.43 c -3.32,1.16 -5.08,4.78 -3.93,8.1 l 0.04,0.11 c 0,0 0,0 0,0 l 1.58,4.54 2.15,6.19 c 1.15,3.32 4.78,5.08 8.11,3.93 l 4.11,-1.43 c 0.92,1.17 1.91,2.28 2.97,3.34 l -1.9,3.91 c -1.53,3.17 -0.21,6.98 2.95,8.51 l 1.05,0.51 9.28,4.5 c 1.66,0.81 3.51,0.82 5.11,0.19 1.44,-0.56 2.68,-1.65 3.4,-3.15 l 1.9,-3.91 c 1.49,0.18 2.97,0.27 4.45,0.26 l 1.43,4.11 c 1.15,3.32 4.78,5.08 8.1,3.93 l 10.84,-3.76 c 3.32,-1.15 5.08,-4.78 3.93,-8.1 l -1.42,-4.11 c 1.16,-0.91 2.28,-1.91 3.34,-2.96 l 3.91,1.9 c 3.17,1.53 6.98,0.21 8.51,-2.95 l 5,-10.32 c 1.53,-3.17 0.21,-6.98 -2.95,-8.51 l -3.91,-1.9 c 0.18,-1.49 0.27,-2.98 0.26,-4.46 l 4.11,-1.42 c 3.32,-1.15 5.08,-4.78 3.93,-8.11 l -3.76,-10.84 c -1.15,-3.32 -4.78,-5.08 -8.1,-3.93 l -4.11,1.43 c -0.91,-1.16 -1.9,-2.28 -2.96,-3.34 l 1.9,-3.92 c 1.53,-3.16 0.21,-6.97 -2.96,-8.51 l -10.32,-5 c -3.17,-1.53 -6.98,-0.21 -8.51,2.95 l -1.9,3.92 c -1.49,-0.18 -2.98,-0.27 -4.46,-0.26 l -1.42,-4.11 c -1.16,-3.32 -4.78,-5.08 -8.11,-3.93 l -10.84,3.76 c -3.32,1.16 -5.08,4.78 -3.93,8.11 l 1.43,4.11 c -1.02,0.8 -2,1.66 -2.94,2.57 -0.13,0.13 -0.27,0.26 -0.4,0.39 l -3.92,-1.9 c -3.16,-1.53 -6.97,-0.21 -8.51,2.96 l -2.5,5.16 -2.5,5.16 c -1.53,3.17 -0.21,6.98 2.95,8.51 v 0 z"
         id="path72"
         style="fill:#ffffff;fill-opacity:1" />
    </g>
    <g
       id="g75">
      <path
         class="cls-4"
         d="m 1678.19,2462.17 c 2.42,-0.58 4.98,-0.98 7.7,-1.19 14.99,-1.11 26.46,4.78 34.14,11.67 2.64,2.37 5.13,5.14 7.32,8.28 l 13.57,-4.41 c 2.27,-5.96 4.63,-11.85 6.83,-17.88 -2.08,-2.4 -5,-5.29 -7.59,-7.88 -0.64,-0.64 -2.17,-2.43 -2.92,-2.48 -0.9,-0.06 -3.26,1.33 -4.38,1.75 -4.64,1.76 -9.08,3.48 -13.42,5.11 -4.45,-2.55 -9.25,-4.76 -14.88,-6.13 -2.58,-5.98 -5.26,-11.86 -7.88,-17.8 h -14.45 c -2.86,5.69 -5.25,11.86 -8.02,17.65 l 3.97,13.3 z"
         id="path73"
         style="fill:#ffffff;fill-opacity:1" />
      <path
         class="cls-4"
         d="m 1659.42,2558.17 3.21,-14.56 c -1.31,-0.95 -2.57,-1.94 -3.73,-2.96 -8.2,-7.17 -14.07,-16.92 -15.17,-30.49 -1.21,-14.81 4.58,-26.3 11.38,-34 2.68,-3.03 5.84,-5.85 9.52,-8.22 l -5.03,-13.01 c -0.13,0.08 -0.28,0.14 -0.41,0.22 -5.73,-2.39 -11.77,-4.48 -17.51,-6.86 -2,1.42 -3.77,3.33 -5.54,5.11 -1.77,1.77 -3.68,3.53 -4.96,5.4 2.17,5.95 4.54,11.7 6.71,17.66 -2.65,4.5 -4.77,9.53 -6.27,15.17 -5.99,2.48 -11.69,5.24 -17.66,7.73 v 14.59 c 5.95,2.66 12.06,5.16 17.8,8.03 1.41,5.59 3.69,10.31 6.13,14.88 -2.31,5.86 -4.48,11.86 -6.86,17.66 3.32,3.68 6.82,7.19 10.51,10.51 4.25,-1.77 8.77,-3.37 13.28,-5.11 1.26,-0.49 3.45,-1.8 4.52,-1.75 0.02,0 0.06,0.01 0.08,0.02 z"
         id="path74"
         style="fill:#ffffff;fill-opacity:1" />
      <path
         class="cls-4"
         d="m 1764.83,2513.95 v -14.59 c -5.62,-2.43 -11.25,-4.85 -16.71,-7.45 l -14.32,3.14 c 0.66,2.6 1.1,5.35 1.27,8.25 0.84,14.67 -4.47,26.1 -11.53,33.85 -7.27,7.99 -17.09,13.93 -30.64,15.03 -5.7,0.46 -10.91,-0.14 -15.63,-1.45 l -2.68,14.08 c 2.4,5.81 5.07,11.36 7.51,17.14 h 14.59 c 2.68,-5.93 5.17,-12.04 8.03,-17.8 5.51,-1.44 10.26,-3.65 14.74,-6.13 5.81,2.46 12,4.53 17.8,7 2,-1.42 3.77,-3.33 5.54,-5.11 1.77,-1.77 3.68,-3.53 4.96,-5.4 -2.21,-6.1 -4.67,-11.96 -6.86,-18.09 2.47,-4.39 4.64,-9.07 5.98,-14.59 6.06,-2.55 11.89,-5.33 17.95,-7.88 z"
         id="path75"
         style="fill:#ffffff;fill-opacity:1" />
    </g>
    <g
       id="g77">
      <path
         class="cls-4"
         d="m 1717.4,2616.67 c 1.8,-5.71 6.34,-10.11 11.22,-11.94 1.36,-0.51 2.88,-0.76 4.36,-0.93 3.48,-0.4 7.01,0 9.65,1.09 4.92,2.02 9.34,6.3 10.98,12.32 l 27.5,0.4 c 3.86,-4.05 7.92,-7.9 11.64,-12.1 -1.56,-3.52 -2.87,-7.3 -4.36,-10.9 -5.68,-0.34 -11.51,-0.53 -17.28,-0.78 -1.2,-1.07 -2.01,-2.33 -3.27,-3.58 -0.9,-0.9 -3.25,-2.33 -3.58,-3.42 -0.32,-1.05 0.02,-2.91 0,-4.2 -0.08,-3.97 -0.26,-8.02 -0.16,-12.61 -3.66,-1.53 -7.15,-3.22 -10.9,-4.67 -3.05,2.52 -6.5,5.7 -9.81,8.72 -0.96,0.87 -2.39,2.74 -3.42,2.96 -2.49,0.52 -5.3,-0.83 -8.25,0 -2,-1.81 -3.96,-3.99 -6.23,-6.07 -2.21,-2.03 -4.06,-4.8 -6.38,-6.07 -0.27,-0.15 -0.53,0.27 -0.62,0.31 -3,1.18 -7.16,2.54 -10.43,4.05 -0.07,2.86 -0.2,5.67 -0.31,8.56 -0.09,2.38 0.21,6.6 -0.47,8.41 -0.54,1.44 -2.44,2.13 -3.58,3.27 -0.92,0.92 -2.19,3.2 -3.42,3.58 -1.07,0.33 -2.86,-0.02 -4.36,0 -4.3,0.04 -8.48,0.28 -12.92,0.16 -1.54,3.65 -3.23,7.15 -4.67,10.9 3.1,3.99 7.37,7.93 10.83,12.15 l 28.23,0.41 z"
         id="path76"
         style="fill:#ffffff;fill-opacity:1" />
      <path
         class="cls-4"
         d="m 1753.66,2627.42 c -3.34,12.86 -19.24,17.92 -29.72,10 -3.12,-2.36 -5.96,-5.98 -6.98,-10.98 l -27.23,-0.73 c -0.48,0.89 -2.11,2.27 -2.83,2.99 -3.36,3.35 -6.82,6.34 -9.34,9.81 1.48,3.5 2.92,7.04 4.2,10.74 5.69,0.33 11.5,0.54 17.28,0.78 1.09,1.15 1.87,2.25 3.11,3.58 0.83,0.89 2.97,2.33 3.27,3.42 0.32,1.18 0,3.06 0,4.51 0,5.07 0.02,9.06 0.16,12.92 3.64,1.54 7.14,3.23 10.89,4.67 3.16,-2.66 6.42,-5.75 9.65,-8.72 0.88,-0.81 2.41,-2.6 3.42,-2.8 0.84,-0.17 1.94,0.27 2.96,0.31 2.14,0.09 4.42,0.06 6.69,-0.16 2.07,2.02 4.26,4.11 6.38,6.23 2.1,2.1 4.12,4.39 6.38,5.91 3.67,-1.36 7.18,-2.88 10.9,-4.2 0.22,-5.85 0.43,-11.71 0.78,-17.43 1.2,-0.98 2.19,-1.91 3.42,-3.11 0.84,-0.83 2.43,-2.99 3.42,-3.27 1.14,-0.32 2.95,0 4.36,0 4.79,0 8.69,-0.07 12.61,-0.16 1.55,-3.64 3.24,-7.14 4.67,-10.9 -3.59,-4.42 -7.75,-8.28 -11.34,-12.7 l -27.12,-0.73 z"
         id="path77"
         style="fill:#ffffff;fill-opacity:1" />
    </g>
    <g
       id="g80">
      <path
         class="cls-4"
         d="m 1428.06,2490.36 19.77,-4.85 c -0.58,-3.16 -0.98,-6.46 -1.13,-9.94 -0.5,-11.31 2.04,-21.17 5.4,-29.18 3.53,-8.41 8.1,-14.64 13.72,-20.72 8.02,-8.68 18.95,-15.55 32.68,-19.11 4.81,-1.25 10.12,-1.91 15.32,-2.19 21.79,-1.17 38.59,8.95 49.76,19.26 6.6,6.09 12.15,13.85 15.92,23.28 l 20.71,-2.51 c -0.06,-0.16 -0.1,-0.33 -0.16,-0.49 4.48,-6.17 9.04,-12.26 13.42,-18.53 -2.72,-4.14 -4.83,-8.89 -7.73,-12.84 -5.22,0.56 -11.15,1.2 -16.63,1.75 -1.83,0.18 -4.4,0.94 -5.69,0.58 -0.67,-0.18 -1.79,-1.75 -2.33,-2.33 -1.82,-1.94 -2.89,-3 -4.67,-4.67 -0.53,-0.5 -2.17,-1.72 -2.33,-2.48 -0.29,-1.36 0.4,-3.67 0.58,-5.54 0.58,-5.83 1.31,-11.24 1.75,-16.78 -3.07,-1.9 -6.36,-3.77 -9.63,-5.69 -0.52,-0.31 -2.8,-1.94 -3.36,-1.9 -0.32,0.02 -1.51,1.25 -2.19,1.75 -5.53,4.09 -11.01,7.98 -16.34,11.67 -3.91,-1.39 -8.1,-2.5 -12.55,-3.36 -2.95,-7.07 -6.15,-13.89 -9.19,-20.87 h -14.74 c -3.52,6.65 -6.15,14.18 -9.63,20.87 -4.31,0.94 -8.49,2.01 -12.4,3.36 -6.36,-4.29 -12.17,-9.13 -18.68,-13.28 -4.24,2.57 -8.78,4.84 -12.84,7.59 0.97,7.3 1.54,15 2.48,22.32 -1.54,1.58 -3.13,2.99 -4.81,4.67 -0.89,0.89 -3.58,4.42 -4.82,4.67 -1.41,0.28 -3.92,-0.43 -5.55,-0.58 -5.76,-0.54 -11.14,-1.21 -16.63,-1.75 -2.7,4.16 -5.1,8.61 -7.59,12.99 4.45,6.2 9,12.3 13.42,18.53 -1.49,3.76 -2.55,7.96 -3.36,12.4 -6.91,3.25 -14.15,6.18 -21.01,9.48 v 14.74 c 6.91,3.25 14.15,6.18 21.01,9.48 0.01,0.07 0.03,0.13 0.04,0.2 z"
         id="path78"
         style="fill:#ffffff;fill-opacity:1" />
      <path
         class="cls-4"
         d="m 1624.42,2480.68 v -14.88 c -6.53,-2.8 -12.99,-5.67 -19.38,-8.6 l -21.83,2.26 c 0.77,3.81 1.3,7.81 1.52,12.04 0.58,10.88 -2.12,20.79 -5.54,28.74 -3.6,8.36 -8.28,14.75 -13.72,20.72 -6.47,7.11 -14.92,13.11 -25.04,16.93 l 6.3,21.02 c 5.68,3.97 11.1,8.19 16.85,12.09 4.25,-2.56 8.8,-4.82 12.84,-7.59 -0.71,-7.56 -1.58,-14.96 -2.33,-22.47 2.41,-2.24 4.98,-4.65 7.15,-7 0.73,-0.79 1.37,-1.83 2.33,-2.19 7.55,0.67 14.92,1.52 22.32,2.33 2.65,-4.16 4.92,-8.69 7.59,-12.84 -4.32,-6.43 -9.16,-12.34 -13.42,-18.82 1.47,-3.78 2.53,-7.98 3.36,-12.4 7.04,-3.08 14.05,-6.19 21.01,-9.34 z"
         id="path79"
         style="fill:#ffffff;fill-opacity:1" />
      <path
         class="cls-4"
         d="m 1527.47,2541.32 c -3.13,0.51 -6.36,0.84 -9.72,0.93 -22.05,0.57 -37.89,-8.19 -49.76,-18.97 -6.06,-5.5 -10.69,-12.33 -14.45,-20.14 -0.53,-1.11 -1.04,-2.25 -1.52,-3.4 l -21.31,3.72 c -4.24,5.94 -8.68,11.69 -12.77,17.77 2.54,4.22 4.98,8.54 7.44,12.84 7.48,-0.89 15.19,-1.54 22.62,-2.48 2.92,3.36 6.21,6.34 9.34,9.48 -0.93,7.38 -1.55,15.08 -2.48,22.47 4.29,2.47 8.62,4.9 12.84,7.44 4.62,-2.94 9.39,-6.71 14.01,-10.07 1.05,-0.76 3.58,-3.13 4.81,-3.21 0.64,-0.04 2.08,0.61 2.92,0.88 3.21,1.02 6.04,1.84 9.48,2.33 3.08,7.04 6.19,14.04 9.34,21.01 h 14.88 c 3.08,-6.79 5.94,-13.8 9.2,-20.42 l -4.88,-20.2 z"
         id="path80"
         style="fill:#ffffff;fill-opacity:1" />
    </g>
    <g
       id="g82">
      <path
         class="cls-4"
         d="m 1394.69,2318.75 c -0.42,-2.01 -0.74,-4.12 -0.92,-6.33 -1.21,-14.81 4.58,-26.3 11.38,-34 6.85,-7.76 16.81,-14.14 30.79,-15.17 6.09,-0.45 11.59,0.27 16.51,1.73 l 1.88,-14.34 c -2.49,-5.75 -5.07,-11.43 -7.59,-17.15 h -14.45 c -2.87,5.69 -5.25,11.87 -8.02,17.66 -5.52,1.58 -10.58,3.63 -15.03,6.27 -5.73,-2.39 -11.77,-4.48 -17.51,-6.86 -2,1.42 -3.77,3.33 -5.54,5.11 -1.77,1.78 -3.68,3.53 -4.96,5.4 2.17,5.95 4.54,11.7 6.71,17.66 -2.65,4.5 -4.77,9.53 -6.27,15.17 -5.99,2.48 -11.69,5.24 -17.66,7.73 v 14.59 c 5.81,2.6 11.78,5.05 17.4,7.83 l 13.29,-5.3 z"
         id="path81"
         style="fill:#ffffff;fill-opacity:1" />
      <path
         class="cls-4"
         d="m 1514.87,2316.21 v -14.59 c -6.05,-2.61 -12.11,-5.21 -17.95,-8.02 -1.33,-5.58 -3.57,-10.24 -5.98,-14.74 2.28,-5.99 4.64,-11.89 6.86,-17.95 -2.08,-2.4 -5,-5.29 -7.59,-7.88 -0.64,-0.64 -2.17,-2.43 -2.92,-2.48 -0.9,-0.06 -3.26,1.33 -4.38,1.75 -4.09,1.56 -8.03,3.07 -11.89,4.53 l -5.18,14.71 c 1.52,1.08 2.93,2.21 4.23,3.38 7.71,6.91 14.26,17.17 15.03,30.64 0.84,14.67 -4.47,26.1 -11.53,33.85 -7.27,7.99 -17.09,13.93 -30.64,15.03 -14.56,1.18 -25.99,-4.52 -34,-11.53 -2.98,-2.61 -5.65,-5.56 -7.9,-8.91 l -13.16,5.25 c -2.29,5.82 -4.45,11.77 -6.81,17.53 3.32,3.68 6.82,7.19 10.51,10.5 4.25,-1.77 8.77,-3.37 13.28,-5.11 1.26,-0.49 3.45,-1.8 4.52,-1.75 0.83,0.04 2.49,1.25 3.5,1.75 3.88,1.92 7.34,3.24 11.53,4.38 2.46,6 5.22,11.71 7.73,17.65 h 14.59 c 2.68,-5.93 5.17,-12.04 8.03,-17.8 5.51,-1.44 10.26,-3.65 14.74,-6.13 5.81,2.46 12,4.53 17.8,7 2,-1.42 3.77,-3.33 5.54,-5.11 1.77,-1.77 3.68,-3.53 4.96,-5.4 -2.21,-6.1 -4.67,-11.96 -6.86,-18.09 2.47,-4.39 4.64,-9.07 5.98,-14.59 6.06,-2.55 11.89,-5.33 17.95,-7.88 z"
         id="path82"
         style="fill:#ffffff;fill-opacity:1" />
    </g>
  </g>
</svg>
